G04 ================== begin FILE IDENTIFICATION RECORD ==================*
G04 Layout Name:  C:/WORK/allegro/EX1.brd*
G04 Film Name:    BOTTOM*
G04 File Format:  Gerber RS274X*
G04 File Origin:  Cadence Allegro 17.2-P019*
G04 Origin Date:  Tue Jul 30 16:20:37 2019*
G04 *
G04 Layer:  ETCH/BOTTOM*
G04 Layer:  PIN/BOTTOM*
G04 Layer:  VIA CLASS/BOTTOM*
G04 *
G04 Offset:    (0.000 0.000)*
G04 Mirror:    No*
G04 Mode:      Positive*
G04 Rotation:  0*
G04 FullContactRelief:  No*
G04 UndefLineWidth:     0.000*
G04 ================== end FILE IDENTIFICATION RECORD ====================*
%FSLAX25Y25*MOMM*%
%IR0*IPPOS*OFA0.00000B0.00000*MIA0B0*SFA1.00000B1.00000*%
%ADD11C,1.524*%
%ADD13C,1.651*%
%ADD12R,1.524X1.524*%
%ADD15O,1.524X1.016*%
%ADD14R,1.524X1.016*%
%ADD10C,.635*%
%ADD16C,1.*%
%ADD17C,.5*%
%ADD18C,2.036*%
%ADD19C,2.164*%
G75*
%LPD*%
G75*
G36*
G01X813400Y4249300D02*
Y3131300D01*
X757700Y3075600D01*
X568200D01*
G03X500000Y3101800I-68200J-75664D01*
G01Y3890200D01*
G03Y4093800I0J101800D01*
G01Y4144200D01*
G03Y4347800I0J101800D01*
G01Y4398200D01*
G03Y4601800I0J101800D01*
G01Y6245800D01*
X754200D01*
Y6500000D01*
X9245800D01*
Y6245800D01*
X9500000D01*
Y3355800D01*
G03Y3152200I0J-101800D01*
G01Y3101800D01*
G03Y2898200I0J-101800D01*
G01Y754200D01*
X9245800D01*
Y500000D01*
X754200D01*
Y754200D01*
X500000D01*
Y2136200D01*
G03X568200Y2162400I0J101864D01*
G01X1328300D01*
X1472600Y2306700D01*
Y3397700D01*
X1555300Y3480400D01*
X1709800D01*
G03Y3631600I68200J75600D01*
G01X1492700D01*
X1321400Y3460300D01*
Y2369300D01*
X1265700Y2313600D01*
X568200D01*
G03X500000Y2339800I-68200J-75664D01*
G01Y2390200D01*
G03Y2593800I0J101800D01*
G01Y2644200D01*
G03Y2847800I0J101800D01*
G01Y2898200D01*
G03X568200Y2924400I0J101864D01*
G01X820300D01*
X964600Y3068700D01*
Y4186700D01*
X1020300Y4242400D01*
X1675800D01*
X1676500Y4238000D01*
G03X1701800Y4216200I25300J3781D01*
G01X1854200D01*
G03X1879800Y4241800I0J25600D01*
G01Y4394200D01*
G03X1858000Y4419500I-25581J0D01*
G01X1853600Y4420200D01*
Y5302800D01*
X1999700Y5448900D01*
X5075700D01*
X5131400Y5393200D01*
Y4958200D01*
X5275700Y4813900D01*
X5583700D01*
X5639400Y4758200D01*
Y4386700D01*
X5783700Y4242400D01*
X6027800D01*
G03Y4393600I68200J75600D01*
G01X5846300D01*
X5790600Y4449300D01*
Y4820800D01*
X5646300Y4965100D01*
X5338300D01*
X5282600Y5020800D01*
Y5455800D01*
X5138300Y5600100D01*
X1937100D01*
X1702400Y5365400D01*
Y4420200D01*
X1698000Y4419500D01*
G03X1676500Y4398000I3800J-25300D01*
G01X1675800Y4393600D01*
X957700D01*
X813400Y4249300D01*
G37*
%LPC*%
G75*
G36*
G01X7772200Y3606800D02*
Y3759200D01*
G02X7797800Y3784800I25600J0D01*
G01X7950200D01*
G02X7975800Y3759200I0J-25600D01*
G01Y3606800D01*
G02X7950200Y3581200I-25600J0D01*
G01X7797800D01*
G02X7772200Y3606800I0J25600D01*
G37*
G36*
G01X6502200Y4495800D02*
Y4648200D01*
G02X6527800Y4673800I25600J0D01*
G01X6680200D01*
G02X6705800Y4648200I0J-25600D01*
G01Y4495800D01*
G02X6680200Y4470200I-25600J0D01*
G01X6527800D01*
G02X6502200Y4495800I0J25600D01*
G37*
G36*
G01X7010200Y2336800D02*
Y2489200D01*
G02X7035800Y2514800I25600J0D01*
G01X7188200D01*
G02X7213800Y2489200I0J-25600D01*
G01Y2336800D01*
G02X7188200Y2311200I-25600J0D01*
G01X7035800D01*
G02X7010200Y2336800I0J25600D01*
G37*
G36*
G01X5232200Y4495800D02*
Y4648200D01*
G02X5257800Y4673800I25600J0D01*
G01X5410200D01*
G02X5435800Y4648200I0J-25600D01*
G01Y4495800D01*
G02X5410200Y4470200I-25600J0D01*
G01X5257800D01*
G02X5232200Y4495800I0J25600D01*
G37*
G36*
G01X1676200Y2590800D02*
Y2743200D01*
G02X1701800Y2768800I25600J0D01*
G01X1854200D01*
G02X1879800Y2743200I0J-25600D01*
G01Y2590800D01*
G02X1854200Y2565200I-25600J0D01*
G01X1701800D01*
G02X1676200Y2590800I0J25600D01*
G37*
G36*
G01X4622600Y5111400D02*
Y4667600D01*
G02X4521400I-50600J-95600D01*
G01Y5111400D01*
G02X4622600I50600J95600D01*
G37*
G36*
G01X7591000Y4013400D02*
X7454300D01*
G02Y4114600I-88300J50600D01*
G01X7549000D01*
X7569400Y4135000D01*
Y4644500D01*
X7649100Y4724200D01*
X7785700D01*
G02Y4623000I88300J-50600D01*
G01X7691100D01*
X7670600Y4602500D01*
Y4093000D01*
X7591000Y4013400D01*
G37*
G36*
G01X6321000D02*
X6184300D01*
G02Y4114600I-88300J50600D01*
G01X6279000D01*
X6299400Y4135000D01*
Y5122400D01*
X6265400Y5156400D01*
X5683600D01*
G02Y5257600I-95600J50600D01*
G01X6307400D01*
X6400600Y5164400D01*
Y4093000D01*
X6321000Y4013400D01*
G37*
G36*
G01X4114600Y4476400D02*
Y3651600D01*
G02X4013400I-50600J-95600D01*
G01Y4476400D01*
G02X4114600I50600J95600D01*
G37*
G36*
G01X7143300Y4242400D02*
X7060600Y4159700D01*
Y2825300D01*
X7143300Y2742600D01*
X7424300D01*
X7568600Y2598300D01*
Y2290300D01*
X7624300Y2234600D01*
X7805800D01*
G02Y2083400I68200J-75600D01*
G01X7561700D01*
X7417400Y2227700D01*
Y2535700D01*
X7361700Y2591400D01*
X7080700D01*
X6909400Y2762700D01*
Y4222300D01*
X7080700Y4393600D01*
X7297800D01*
G02Y4242400I68200J-75600D01*
G01X7143300D01*
G37*
G36*
G01X4673700Y2291200D02*
X4831200Y2133700D01*
X4833100Y2133500D01*
G02X4724500Y2024900I-7100J-101500D01*
G01X4724300Y2026800D01*
X4566800Y2184300D01*
X4564900Y2184500D01*
G02X4503800Y2210400I7006J101547D01*
G01X4159700D01*
X3988400Y2381700D01*
Y2716600D01*
G02X4139600I75600J77400D01*
G01Y2444300D01*
X4222300Y2361600D01*
X4503800D01*
G02X4673500Y2293100I68160J-75598D01*
G01X4673700Y2291200D01*
G37*
G36*
G01X2489400Y2247300D02*
Y2324700D01*
G02X2590600I50600J88300D01*
G01Y2247300D01*
G02X2600200Y2241100I-50338J-88475D01*
G03X2616400Y2249300I6005J8239D01*
G01Y2257000D01*
X2696000Y2336600D01*
X2825400D01*
G02Y2235400I95600J-50600D01*
G01X2738000D01*
X2717600Y2215000D01*
Y2011000D01*
X2638300Y1931700D01*
X2638900Y1928900D01*
G02X2563900Y2003900I-98900J-23900D01*
G01X2566700Y2003300D01*
X2616400Y2053000D01*
Y2068700D01*
G03X2600200Y2076900I-10195J-39D01*
G02X2489400Y2247300I-60248J82047D01*
G37*
G36*
G01X4021500Y2146100D02*
X4114600Y2053000D01*
Y1873600D01*
G02X4013400I-50600J-95600D01*
G01Y2011000D01*
X3979500Y2044900D01*
X3585000D01*
X3505400Y2124500D01*
Y2698400D01*
G02X3606600I50600J95600D01*
G01Y2166500D01*
X3627000Y2146100D01*
X4021500D01*
G37*
G36*
G01X6806600Y1809300D02*
X6889300Y1726600D01*
X7043800D01*
G02Y1575400I68200J-75600D01*
G01X6826700D01*
X6655400Y1746700D01*
Y3270700D01*
X6528400Y3397700D01*
Y3741800D01*
G02X6679600I75600J68200D01*
G01Y3460300D01*
X6806600Y3333300D01*
Y1809300D01*
G37*
G36*
G01X5156400Y2257000D02*
X5236000Y2336600D01*
X5352500D01*
G03X5361700Y2351200I-5J10202D01*
G02X5359200Y2362200I23093J11032D01*
G01Y2463800D01*
G02X5384800Y2489400I25600J0D01*
G01X5537200D01*
G02X5562800Y2463800I0J-25600D01*
G01Y2362200D01*
G02X5552600Y2341800I-25500J0D01*
G03X5550200Y2328000I6127J-8174D01*
G02X5538300Y2230000I-63811J-41974D01*
G03Y2215000I6979J-7500D01*
G02X5486400Y2082600I-51900J-56028D01*
G01X5435600D01*
G02X5383700Y2215000I0J76372D01*
G03Y2230000I-6979J7500D01*
G02X5378400Y2235400I51790J56132D01*
G01X5278000D01*
X5257600Y2215000D01*
Y1468000D01*
X5278000Y1447600D01*
X5365400D01*
G02Y1346400I95600J-50600D01*
G01X5236000D01*
X5156400Y1426000D01*
Y2257000D01*
G37*
G36*
G01X6194000Y3162100D02*
X6273600Y3082500D01*
Y1277500D01*
X6294000Y1257100D01*
X7549000D01*
X7569400Y1277500D01*
Y1812500D01*
X7712500Y1955600D01*
X7785700D01*
G02X7962300I88300J-50600D01*
G01X7993500D01*
X8077400Y2039500D01*
Y2723000D01*
X8057000Y2743400D01*
X7708300D01*
G02Y2844600I-88300J50600D01*
G01X8099000D01*
X8178600Y2765000D01*
Y1997500D01*
X8035500Y1854400D01*
X7962300D01*
G02X7785700I-88300J50600D01*
G01X7754500D01*
X7670600Y1770500D01*
Y1235500D01*
X7591000Y1155900D01*
X6252000D01*
X6172400Y1235500D01*
Y3040500D01*
X6152000Y3060900D01*
X3458000D01*
X3378400Y3140500D01*
Y4501000D01*
X3358000Y4521400D01*
X3143600D01*
G02Y4622600I-95600J50600D01*
G01X3400000D01*
X3479600Y4543000D01*
Y3182500D01*
X3500000Y3162100D01*
X6194000D01*
G37*
G54D18*
X1778000Y1905000D03*
Y2159000D03*
Y2413000D03*
Y3810000D03*
Y4064000D03*
X2540000Y2667000D03*
Y3556000D03*
Y3810000D03*
Y4064000D03*
Y4318000D03*
X4826000Y2540000D03*
X5334000Y3810000D03*
Y4064000D03*
Y4318000D03*
X6096000Y3810000D03*
Y4572000D03*
X7112000Y1905000D03*
Y2159000D03*
X6604000Y4064000D03*
Y4318000D03*
X7874000Y1651000D03*
Y2413000D03*
X7366000Y3048000D03*
X7620000Y3302000D03*
X7366000Y3810000D03*
Y4572000D03*
G54D19*
X2921000Y2032000D03*
X3048000Y4191000D03*
Y3556000D03*
Y3937000D03*
X3556000Y1778000D03*
X4572000Y3556000D03*
X5461000Y1651000D03*
X5969000Y1397000D03*
X6477000Y2159000D03*
X5969000Y2413000D03*
X6477000Y3175000D03*
X8509000Y3683000D03*
Y4699000D03*
%LPD*%
G75*
G54D10*
X500000Y500000D03*
Y6500000D03*
X9500000Y500000D03*
Y6500000D03*
Y9500000D03*
G54D11*
X500000Y2238000D03*
Y2492000D03*
Y2746000D03*
Y3000000D03*
Y3992000D03*
Y4246000D03*
Y4500000D03*
X1778000Y1905000D03*
Y2159000D03*
Y2413000D03*
Y3556000D03*
Y3810000D03*
Y4064000D03*
X2540000Y1905000D03*
Y2159000D03*
Y2413000D03*
Y2667000D03*
Y3556000D03*
Y3810000D03*
Y4064000D03*
Y4318000D03*
X4826000Y2032000D03*
X4572000Y2286000D03*
X4826000Y2540000D03*
X5334000Y3810000D03*
Y4064000D03*
Y4318000D03*
X6096000Y3810000D03*
Y4064000D03*
Y4318000D03*
Y4572000D03*
X7112000Y1651000D03*
Y1905000D03*
Y2159000D03*
X6604000Y3810000D03*
Y4064000D03*
Y4318000D03*
X7874000Y1651000D03*
Y1905000D03*
Y2159000D03*
Y2413000D03*
X7620000Y2794000D03*
X7366000Y3048000D03*
X7620000Y3302000D03*
X7366000Y3810000D03*
Y4064000D03*
Y4318000D03*
Y4572000D03*
X7874000Y4673600D03*
X9500000Y3254000D03*
Y3000000D03*
G54D12*
X1778000Y2667000D03*
Y4318000D03*
X5334000Y4572000D03*
X7112000Y2413000D03*
X6604000Y4572000D03*
X7874000Y3683000D03*
G54D13*
X2921000Y2032000D03*
Y2286000D03*
X3048000Y3556000D03*
Y4191000D03*
Y3937000D03*
Y4572000D03*
X4064000Y1778000D03*
X3556000D03*
X4064000Y2794000D03*
X3556000D03*
X4064000Y3556000D03*
Y4572000D03*
X4572000Y3556000D03*
Y4572000D03*
Y5207000D03*
X5461000Y1651000D03*
Y1397000D03*
X5588000Y5207000D03*
X5969000Y1397000D03*
X6477000Y2159000D03*
X5969000Y2413000D03*
X6477000Y3175000D03*
X8509000Y3683000D03*
Y4699000D03*
G54D14*
X5461000Y2413000D03*
G54D15*
Y2286000D03*
Y2159000D03*
G54D16*
G01X500000Y2238000D02*
X1297000D01*
X1397000Y2338000D01*
Y3429000D01*
X1524000Y3556000D01*
X1778000D01*
G01X500000Y3000000D02*
X789000D01*
X889000Y3100000D01*
Y4218000D01*
X989000Y4318000D01*
X1778000D01*
G01X500000Y3885100D02*
Y3992000D01*
G01D02*
X606900D01*
G01X1778000Y2667000D02*
Y2773900D01*
G01X1671100Y2667000D02*
X1778000D01*
G01D02*
X1884900D01*
G01X1778000Y4318000D02*
Y5334100D01*
X1968400Y5524500D01*
X5107000D01*
X5207000Y5424500D01*
Y4989500D01*
X5307000Y4889500D01*
X5615000D01*
X5715000Y4789500D01*
Y4418000D01*
X5815000Y4318000D01*
X6096000D01*
G01X2433100Y4064000D02*
X2540000D01*
G01D02*
X2646900D01*
G01X2921000Y1918700D02*
Y2032000D01*
G01X2807700D02*
X2921000D01*
G01D02*
X3034300D01*
G01X3048000Y4191000D02*
Y4304300D01*
G01X2934700Y4191000D02*
X3048000D01*
G01D02*
X3161300D01*
G01X3556000Y1664700D02*
Y1778000D01*
G01D02*
Y1891300D01*
G01X3442700Y1778000D02*
X3556000D01*
G01D02*
X3669300D01*
G01X4572000Y2286000D02*
X4191000D01*
X4064000Y2413000D01*
Y2794000D01*
G01X4572000Y2286000D02*
X4826000Y2032000D01*
G01X4572000Y3442700D02*
Y3556000D01*
G01D02*
Y3669300D01*
G01X4458700Y3556000D02*
X4572000D01*
G01D02*
X4685300D01*
G01X5461000Y1651000D02*
Y1764300D01*
G01X5347700Y1651000D02*
X5461000D01*
G01D02*
X5574300D01*
G01X7005100Y1905000D02*
X7112000D01*
G01D02*
X7218900D01*
G01X7112000Y1651000D02*
X6858000D01*
X6731000Y1778000D01*
Y3302000D01*
X6604000Y3429000D01*
Y3810000D01*
G01X7874000Y2159000D02*
X7593000D01*
X7493000Y2259000D01*
Y2567000D01*
X7393000Y2667000D01*
X7112000D01*
X6985000Y2794000D01*
Y4191000D01*
X7112000Y4318000D01*
X7366000D01*
G01X6497100Y4064000D02*
X6604000D01*
G01D02*
X6710900D01*
G01X8509000Y4699000D02*
X9400000D01*
G01X8509000Y4585700D02*
Y4699000D01*
G01D02*
Y4812300D01*
G01X8395700Y4699000D02*
X8509000D01*
G01X9500000Y4599000D02*
Y3254000D01*
G01X9400000Y4699000D02*
X9500000Y4599000D01*
G54D17*
G01X2921000Y2286000D02*
X2717000D01*
X2667000Y2236000D01*
Y2032000D01*
X2540000Y1905000D01*
G01Y2413000D02*
Y2159000D01*
G01X7874000Y1905000D02*
X7733500D01*
X7620000Y1791500D01*
Y1256500D01*
X7570000Y1206500D01*
X6273000D01*
X6223000Y1256500D01*
Y3061500D01*
X6173000Y3111500D01*
X3479000D01*
X3429000Y3161500D01*
Y4522000D01*
X3379000Y4572000D01*
X3048000D01*
G01X4064000Y1778000D02*
Y2032000D01*
X4000500Y2095500D01*
X3606000D01*
X3556000Y2145500D01*
Y2794000D01*
G01X4064000Y4572000D02*
Y3556000D01*
G01X4572000Y5207000D02*
Y4572000D01*
G01X5461000Y1397000D02*
X5257000D01*
X5207000Y1447000D01*
Y2236000D01*
X5257000Y2286000D01*
X5461000D01*
G01X5588000Y5207000D02*
X6286400D01*
X6350000Y5143400D01*
Y4114000D01*
X6300000Y4064000D01*
X6096000D01*
G01X7874000Y1905000D02*
X8014500D01*
X8128000Y2018500D01*
Y2744000D01*
X8078000Y2794000D01*
X7620000D01*
G01X7874000Y4673600D02*
X7670100D01*
X7620000Y4623500D01*
Y4114000D01*
X7570000Y4064000D01*
X7366000D01*
M02*
