G04 ================== begin FILE IDENTIFICATION RECORD ==================*
G04 Layout Name:  C:/WORK/allegro/EX2.brd*
G04 Film Name:    BOTTOM*
G04 File Format:  Gerber RS274X*
G04 File Origin:  Cadence Allegro 17.2-P019*
G04 Origin Date:  Wed Jul 31 12:13:07 2019*
G04 *
G04 Layer:  ETCH/BOTTOM*
G04 Layer:  PIN/BOTTOM*
G04 Layer:  VIA CLASS/BOTTOM*
G04 *
G04 Offset:    (0.000 0.000)*
G04 Mirror:    No*
G04 Mode:      Positive*
G04 Rotation:  0*
G04 FullContactRelief:  No*
G04 UndefLineWidth:     0.000*
G04 ================== end FILE IDENTIFICATION RECORD ====================*
%FSLAX25Y25*MOMM*%
%IR0*IPPOS*OFA0.00000B0.00000*MIA0B0*SFA1.00000B1.00000*%
%ADD11C,1.524*%
%ADD12C,1.651*%
%ADD13R,1.524X1.524*%
%ADD10C,.635*%
%ADD14C,1.*%
%ADD15C,.5*%
%ADD16C,1.91*%
%ADD17C,1.782*%
G75*
%LPD*%
G75*
G36*
G01X9098000Y2743400D02*
X9419000D01*
X9482600Y2807000D01*
G02X9500000Y2799800I7213J-7194D01*
G01Y754200D01*
X9245800D01*
Y500000D01*
X754200D01*
Y754200D01*
X500000D01*
Y2902900D01*
G03X547200Y2916400I43J89112D01*
G01X2896300D01*
X3123600Y3143700D01*
Y3715200D01*
X3396800Y3988400D01*
X3635800D01*
G03Y4139600I47200J75600D01*
G01X3334200D01*
X2972400Y3777800D01*
Y3206300D01*
X2833700Y3067600D01*
X547200D01*
G03X500000Y3081100I-47157J-75612D01*
G01Y3156900D01*
G03Y3335100I0J89100D01*
G01Y3410900D01*
G03Y3589100I0J89100D01*
G01Y6245800D01*
X754200D01*
Y6500000D01*
X9245800D01*
Y6245800D01*
X9500000D01*
Y3843100D01*
G03Y3664900I0J-89100D01*
G01Y3589100D01*
G03X9449400Y3426700I0J-89083D01*
G01Y2917000D01*
X9377000Y2844600D01*
X9098000D01*
G03X8936000I-81000J-50600D01*
G01X8466500D01*
X8432600Y2878500D01*
Y3228700D01*
G03X8331400I-50600J73300D01*
G01Y2836500D01*
X8424500Y2743400D01*
X8936000D01*
G03X9098000I81000J50600D01*
G37*
%LPC*%
G75*
G36*
G01X8800900Y3987800D02*
Y4140200D01*
G02X8813800Y4153100I12900J0D01*
G01X8966200D01*
G02X8979100Y4140200I0J-12900D01*
G01Y3987800D01*
G02X8966200Y3974900I-12900J0D01*
G01X8813800D01*
G02X8800900Y3987800I0J12900D01*
G37*
G36*
G01X7530900D02*
Y4140200D01*
G02X7543800Y4153100I12900J0D01*
G01X7696200D01*
G02X7709100Y4140200I0J-12900D01*
G01Y3987800D01*
G02X7696200Y3974900I-12900J0D01*
G01X7543800D01*
G02X7530900Y3987800I0J12900D01*
G37*
G36*
G01X6260900D02*
Y4140200D01*
G02X6273800Y4153100I12900J0D01*
G01X6426200D01*
G02X6439100Y4140200I0J-12900D01*
G01Y3987800D01*
G02X6426200Y3974900I-12900J0D01*
G01X6273800D01*
G02X6260900Y3987800I0J12900D01*
G37*
G36*
G01X4355900D02*
Y4140200D01*
G02X4368800Y4153100I12900J0D01*
G01X4521200D01*
G02X4534100Y4140200I0J-12900D01*
G01Y3987800D01*
G02X4521200Y3974900I-12900J0D01*
G01X4368800D01*
G02X4355900Y3987800I0J12900D01*
G37*
G36*
G01X2997400Y5288000D02*
Y5514700D01*
G02X3098600I50600J73300D01*
G01Y5288000D01*
G02X2997400I-50600J-81000D01*
G37*
G36*
G01X2192900Y5228500D02*
X2108400Y5313000D01*
Y5507000D01*
G02X2209600I50600J81000D01*
G01Y5355000D01*
X2264500Y5300100D01*
X2267200Y5300600D01*
G02X2192400Y5225800I18800J-93600D01*
G01X2192900Y5228500D01*
G37*
G36*
G01X1799500Y5300100D02*
X1884000Y5384600D01*
X1897500D01*
X1917900Y5405000D01*
Y5630500D01*
X1799500Y5748900D01*
X1796800Y5748400D01*
G02X1871600Y5823200I-18800J93600D01*
G01X1871100Y5820500D01*
X2019100Y5672500D01*
Y5363000D01*
X1939500Y5283400D01*
X1926000D01*
X1871100Y5228500D01*
X1871600Y5225800D01*
G02X1796800Y5300600I-93600J-18800D01*
G01X1799500Y5300100D01*
G37*
G36*
G01X1447600Y5288000D02*
G02X1346400I-50600J-81000D01*
G01Y5507000D01*
G02X1447600I50600J81000D01*
G01Y5288000D01*
G37*
G36*
G01X994500Y5748900D02*
X876100Y5630500D01*
Y5418500D01*
X994500Y5300100D01*
X997200Y5300600D01*
G02X922400Y5225800I18800J-93600D01*
G01X922900Y5228500D01*
X774900Y5376500D01*
Y5672500D01*
X922900Y5820500D01*
X922400Y5823200D01*
G02X997200Y5748400I93600J18800D01*
G01X994500Y5748900D01*
G37*
G36*
G01X8432600Y4543000D02*
Y4137300D01*
G02X8331400I-50600J-73300D01*
G01Y4501000D01*
X8311000Y4521400D01*
X8082000D01*
G02Y4622600I-81000J50600D01*
G01X8353000D01*
X8432600Y4543000D01*
G37*
G36*
G01X6204200Y4478400D02*
X6201500Y4478900D01*
X6146600Y4424000D01*
Y4137300D01*
G02X6045400I-50600J-73300D01*
G01Y4466000D01*
X6129900Y4550500D01*
X6129400Y4553200D01*
G02X6204200Y4478400I93600J18800D01*
G37*
G36*
G01X3987600Y4543000D02*
Y4137300D01*
G02X3886400I-50600J-73300D01*
G01Y4501000D01*
X3866000Y4521400D01*
X3510000D01*
G02Y4622600I-81000J50600D01*
G01X3908000D01*
X3987600Y4543000D01*
G37*
G36*
G01X5736000Y3632400D02*
X5280300D01*
G02Y3733600I-73300J50600D01*
G01X5694000D01*
X5791400Y3831000D01*
Y3990700D01*
G02X5892600I50600J73300D01*
G01Y3789000D01*
X5736000Y3632400D01*
G37*
G36*
G01X8051600Y3228000D02*
Y2875000D01*
G02X7950400I-50600J-81000D01*
G01Y3704000D01*
X8043500Y3797100D01*
X8551500D01*
X8585400Y3831000D01*
Y3990700D01*
G02X8686600I50600J73300D01*
G01Y3789000D01*
X8593500Y3695900D01*
X8085500D01*
X8051600Y3662000D01*
Y3376000D01*
G03X8068600Y3368400I10200J2D01*
G02Y3235600I59400J-66400D01*
G03X8051600Y3228000I-6800J-7602D01*
G37*
G36*
G01X7162600Y2836500D02*
X7069500Y2743400D01*
X6812000D01*
G02Y2844600I-81000J50600D01*
G01X7027500D01*
X7061400Y2878500D01*
Y3228700D01*
G02X7162600I50600J73300D01*
G01Y2836500D01*
G37*
G36*
G01X5707500Y2844600D02*
X5791400Y2928500D01*
Y3228700D01*
G02Y3375300I50600J73300D01*
G01Y3640500D01*
X5884500Y3733600D01*
X7218000D01*
X7315400Y3831000D01*
Y3990700D01*
G02X7277900Y4077600I50570J73364D01*
G01X7278300Y4080100D01*
X7188400Y4170000D01*
Y4491000D01*
G02X7289600I50600J81000D01*
G01Y4212000D01*
X7349900Y4151700D01*
X7352400Y4152100D01*
G02X7416600Y3990700I13594J-88061D01*
G01Y3789000D01*
X7260000Y3632400D01*
X5926500D01*
X5892600Y3598500D01*
Y3375300D01*
G02Y3228700I-50600J-73300D01*
G01Y2886500D01*
X5749500Y2743400D01*
X5542000D01*
G02Y2844600I-81000J50600D01*
G01X5707500D01*
G37*
G36*
G01X2556100Y5675700D02*
X2706300Y5825900D01*
X2705900Y5828400D01*
G02X2867300Y5892600I88061J13594D01*
G01X4529500D01*
X4749600Y5672500D01*
Y4654400D01*
G03X4766200Y4646400I10212J-32D01*
G02X4876600Y4491000I59907J-74356D01*
G01Y4011000D01*
G03X4893600Y4003400I10200J2D01*
G02Y3870600I59400J-66400D01*
G03X4876600Y3863000I-6800J-7602D01*
G01Y3503000D01*
G03X4893600Y3495400I10200J2D01*
G02Y3362600I59400J-66400D01*
G03X4876600Y3355000I-6800J-7602D01*
G01Y3154000D01*
X4659700Y2937100D01*
X4660100Y2934600D01*
G02X4585600Y3009100I-88100J-13600D01*
G01X4588100Y3008700D01*
X4775400Y3196000D01*
Y4491000D01*
G02X4766200Y4497600I50957J80744D01*
G03X4749600Y4489600I-6388J-7968D01*
G01Y3725500D01*
X4656500Y3632400D01*
X4021500D01*
X3987600Y3598500D01*
Y3375300D01*
G02Y3228700I-50600J-73300D01*
G01Y3069000D01*
X4047900Y3008700D01*
X4050400Y3009100D01*
G02X4152100Y2907400I13600J-88100D01*
G01X4151700Y2904900D01*
X4301900Y2754700D01*
X4304400Y2755100D01*
G02X4229900Y2680600I13600J-88100D01*
G01X4230300Y2683100D01*
X4080100Y2833300D01*
X4077600Y2832900D01*
G02X3975900Y2934600I-13600J88100D01*
G01X3976300Y2937100D01*
X3886400Y3027000D01*
Y3228700D01*
G02Y3375300I50600J73300D01*
G01Y3640500D01*
X3979500Y3733600D01*
X4614500D01*
X4648400Y3767500D01*
Y4489900D01*
X4642400Y4495900D01*
Y4648100D01*
X4648400Y4654100D01*
Y5630500D01*
X4487500Y5791400D01*
X2867300D01*
G02X2780400Y5753900I-73364J50570D01*
G01X2777900Y5754300D01*
X2627700Y5604100D01*
X2628100Y5601600D01*
G02X2553600Y5676100I-88100J-13600D01*
G01X2556100Y5675700D01*
G37*
G54D16*
X1016000Y4191000D03*
Y5588000D03*
X1397000Y4191000D03*
X1778000D03*
Y5588000D03*
X1397000Y5842000D03*
X2667000Y4191000D03*
X2286000D03*
X2667000Y5207000D03*
X2159000Y5842000D03*
X3048000Y4191000D03*
X4445000Y4572000D03*
X6477000Y2794000D03*
X5842000Y4572000D03*
X7747000Y2794000D03*
X9017000Y4572000D03*
G54D17*
X3683000Y3302000D03*
X4191000D03*
Y4064000D03*
X4445000Y3302000D03*
X5588000D03*
Y4064000D03*
X6096000Y3302000D03*
X6350000D03*
X6858000D03*
Y4064000D03*
X7112000D03*
X7366000Y3302000D03*
X7620000D03*
X8636000D03*
X8128000Y4064000D03*
X8890000Y3302000D03*
%LPD*%
G75*
G54D10*
X500000Y500000D03*
Y6500000D03*
X9500000Y500000D03*
Y6500000D03*
G54D11*
X500000Y2992000D03*
Y3246000D03*
Y3500000D03*
X2540000Y5588000D03*
X3048000D03*
X2794000Y5842000D03*
X3683000Y3302000D03*
X3937000D03*
X4191000D03*
X4064000Y2921000D03*
X3683000Y4064000D03*
X3937000D03*
X4191000D03*
X4318000Y2667000D03*
X4445000Y3302000D03*
X4572000Y2921000D03*
X4953000Y3429000D03*
Y3937000D03*
X5588000Y3302000D03*
Y4064000D03*
X5207000Y3683000D03*
X5842000Y3302000D03*
X6096000D03*
X6350000D03*
X5842000Y4064000D03*
X6096000D03*
X6858000Y3302000D03*
X7112000D03*
X6858000Y4064000D03*
X7112000D03*
X7366000Y3302000D03*
X7620000D03*
X7366000Y4064000D03*
X8128000Y3302000D03*
X8382000D03*
X8636000D03*
X8128000Y4064000D03*
X8382000D03*
X8636000D03*
X8890000Y3302000D03*
X9500000Y3754000D03*
Y3500000D03*
G54D12*
X1016000Y4191000D03*
Y5207000D03*
Y5588000D03*
Y5842000D03*
X1397000Y4191000D03*
X1778000D03*
X1397000Y5207000D03*
X1778000D03*
Y5588000D03*
X1397000D03*
X1778000Y5842000D03*
X1397000D03*
X2667000Y4191000D03*
X2286000D03*
X2667000Y5207000D03*
X2286000D03*
X2159000Y5588000D03*
Y5842000D03*
X3048000Y4191000D03*
X3429000Y4572000D03*
X3048000Y5207000D03*
X4445000Y4572000D03*
X4826000D03*
X5461000Y2794000D03*
X6477000D03*
X6223000Y4572000D03*
X5842000D03*
X6731000Y2794000D03*
X7239000Y4572000D03*
X7747000Y2794000D03*
X8001000D03*
Y4572000D03*
X9017000Y2794000D03*
Y4572000D03*
G54D13*
X4445000Y4064000D03*
X6350000D03*
X7620000D03*
X8890000D03*
G54D14*
G01X3683000D02*
X3365500D01*
X3048000Y3746500D01*
Y3175000D01*
X2865000Y2992000D01*
X500000D01*
G01X9500000Y4470000D02*
Y3754000D01*
G01X9017000Y4572000D02*
X9398000D01*
G01D02*
X9500000Y4470000D01*
G54D15*
G01X500000Y3151800D02*
Y3246000D01*
G01D02*
Y3340200D01*
G01Y3246000D02*
X594200D01*
G01X1016000Y4090400D02*
Y4191000D01*
G01D02*
Y4291600D01*
G01X915400Y4191000D02*
X1016000D01*
G01D02*
X1116600D01*
G01X1016000Y5207000D02*
X825500Y5397500D01*
Y5651500D01*
X1016000Y5842000D01*
G01X1778000Y4090400D02*
Y4191000D01*
G01X1397000Y4090400D02*
Y4191000D01*
G01X1778000D02*
Y4291600D01*
G01X1677400Y4191000D02*
X1778000D01*
G01D02*
X1878600D01*
G01X1397000D02*
Y4291600D01*
G01X1296400Y4191000D02*
X1397000D01*
G01D02*
X1497600D01*
G01X1397000Y5207000D02*
Y5588000D01*
G01X1778000Y5842000D02*
X1968500Y5651500D01*
Y5384000D01*
X1918500Y5334000D01*
X1905000D01*
X1778000Y5207000D01*
G01X2286000Y4090400D02*
Y4191000D01*
G01D02*
Y4291600D01*
G01X2185400Y4191000D02*
X2286000D01*
G01D02*
X2386600D01*
G01X2540000Y5588000D02*
X2794000Y5842000D01*
G01X2159000Y5588000D02*
Y5334000D01*
X2286000Y5207000D01*
G01X3048000Y5588000D02*
Y5207000D01*
G01X3937000Y3302000D02*
Y3619500D01*
X4000500Y3683000D01*
X4635500D01*
X4699000Y3746500D01*
Y4510900D01*
X4693000Y4516900D01*
Y4627100D01*
X4699000Y4633100D01*
Y5651500D01*
X4508500Y5842000D01*
X2794000D01*
G01X4064000Y2921000D02*
X4318000Y2667000D01*
G01X3937000Y3302000D02*
Y3048000D01*
X4064000Y2921000D01*
G01X3429000Y4572000D02*
X3887000D01*
X3937000Y4522000D01*
Y4064000D01*
G01X4572000Y2921000D02*
X4826000Y3175000D01*
Y4572000D01*
G01X4445000Y4471400D02*
Y4572000D01*
G01D02*
Y4672600D01*
G01X4344400Y4572000D02*
X4445000D01*
G01D02*
X4545600D01*
G01X5842000Y3302000D02*
Y2907500D01*
X5728500Y2794000D01*
X5461000D01*
G01X5842000Y4064000D02*
Y3810000D01*
X5715000Y3683000D01*
X5207000D01*
G01X7366000Y4064000D02*
Y3810000D01*
X7239000Y3683000D01*
X5905500D01*
X5842000Y3619500D01*
Y3302000D01*
G01X6096000Y4064000D02*
Y4445000D01*
X6223000Y4572000D01*
G01X7112000Y3302000D02*
Y2857500D01*
X7048500Y2794000D01*
X6731000D01*
G01X7112000Y3969800D02*
Y4064000D01*
G01D02*
Y4158200D01*
G01X7017800Y4064000D02*
X7112000D01*
G01D02*
X7206200D01*
G01X7239000Y4572000D02*
Y4191000D01*
X7366000Y4064000D01*
G01X8636000D02*
Y3810000D01*
X8572500Y3746500D01*
X8064500D01*
X8001000Y3683000D01*
Y2794000D01*
G01X8382000Y3302000D02*
Y2857500D01*
X8445500Y2794000D01*
X9017000D01*
G01X8001000Y4572000D02*
X8332000D01*
X8382000Y4522000D01*
Y4064000D01*
G01X9500000Y3500000D02*
Y2896000D01*
X9398000Y2794000D01*
X9017000D01*
G01X9500000Y3659800D02*
Y3754000D01*
G01X9405800D02*
X9500000D01*
G01X9017000Y4471400D02*
Y4572000D01*
G01D02*
Y4672600D01*
G01X8916400Y4572000D02*
X9017000D01*
M02*
