G04 ================== begin FILE IDENTIFICATION RECORD ==================*
G04 Layout Name:  C:/WORK/allegro/EX1.brd*
G04 Film Name:    DrillDraw*
G04 File Format:  Gerber RS274X*
G04 File Origin:  Cadence Allegro 17.2-P019*
G04 Origin Date:  Tue Jul 30 16:20:37 2019*
G04 *
G04 Layer:  BOARD GEOMETRY/OUTLINE*
G04 Layer:  BOARD GEOMETRY/DIMENSION*
G04 Layer:  BOARD GEOMETRY/DESIGN_OUTLINE*
G04 *
G04 Offset:    (0.000 0.000)*
G04 Mirror:    No*
G04 Mode:      Positive*
G04 Rotation:  0*
G04 FullContactRelief:  No*
G04 UndefLineWidth:     0.200*
G04 ================== end FILE IDENTIFICATION RECORD ====================*
%FSLAX25Y25*MOMM*%
%IR0*IPPOS*OFA0.00000B0.00000*MIA0B0*SFA1.00000B1.00000*%
%ADD10C,.2*%
G75*
%LPD*%
G75*
G54D10*
G01X-250000Y0D02*
X-2155000D01*
G01X-1967500Y400000D02*
X-1905000Y0D01*
X-1842500Y400000D01*
X-1967500D01*
G01X-1809700Y3329000D02*
X-1851000Y3333700D01*
X-1885900Y3340800D01*
X-1917700Y3350300D01*
X-1952600Y3362100D01*
X-2000200Y3381100D01*
Y3286300D01*
G01Y3524200D02*
X-1993900Y3505200D01*
X-1978000Y3491000D01*
X-1958900Y3481500D01*
X-1933500Y3474400D01*
X-1904900Y3472100D01*
X-1876400Y3474400D01*
X-1851000Y3481500D01*
X-1831900Y3491000D01*
X-1816000Y3505200D01*
X-1809700Y3524200D01*
X-1816000Y3543200D01*
X-1831900Y3557400D01*
X-1851000Y3566900D01*
X-1876400Y3574000D01*
X-1904900Y3576300D01*
X-1933500Y3574000D01*
X-1958900Y3566900D01*
X-1978000Y3557400D01*
X-1993900Y3543200D01*
X-2000200Y3524200D01*
G01X-250000Y7000000D02*
X-2155000D01*
G01X-1842500Y6600000D02*
X-1905000Y7000000D01*
X-1967500Y6600000D01*
X-1842500D01*
G01X-1905000Y3119900D02*
Y0D01*
G01Y3738100D02*
Y7000000D01*
G01X-250000Y0D02*
X-580200D01*
G01X250000Y500000D02*
X-580200D01*
G01X250000D02*
X-580200D01*
G01X250000Y3000000D02*
X-580200D01*
G01X250000D02*
X-580200D01*
G01X250000Y4500000D02*
X-580200D01*
G01X250000D02*
X-580200D01*
G01X-250000Y7000000D02*
X-529400D01*
G01X250000Y6500000D02*
X-529400D01*
G01X250000D02*
X-580200D01*
G01X0Y0D02*
Y7000000D01*
X10000000D01*
Y0D01*
X0D01*
G01X-263500Y201900D02*
X-247600Y216100D01*
X-238100Y232700D01*
X-234900Y254000D01*
X-241200Y275300D01*
X-253900Y291900D01*
X-276200Y303800D01*
X-301600Y306100D01*
X-327000Y301400D01*
X-342900Y289500D01*
X-355500Y273000D01*
X-358700Y256400D01*
X-355500Y239800D01*
X-342900Y218500D01*
X-425400Y225600D01*
Y289500D01*
G01X-330200Y40100D02*
Y0D01*
G01X-267700Y-400000D02*
X-330200Y0D01*
X-392700Y-400000D01*
X-267700D01*
G01X-330200Y1418100D02*
Y500000D01*
G01X-392700Y900000D02*
X-330200Y500000D01*
X-267700Y900000D01*
X-392700D01*
G01X-330200Y467900D02*
Y500000D01*
G01X-392700Y900000D02*
X-330200Y500000D01*
X-267700Y900000D01*
X-392700D01*
G01X-393700Y1586900D02*
X-412700Y1601100D01*
X-422200Y1617700D01*
X-425400Y1636600D01*
X-419100Y1660300D01*
X-403200Y1676900D01*
X-384100Y1681700D01*
X-365100Y1679300D01*
X-349200Y1669800D01*
X-317400Y1622400D01*
X-295200Y1601100D01*
X-263500Y1586900D01*
X-234900Y1582100D01*
Y1681700D01*
G01X-263500Y1770300D02*
X-247600Y1784500D01*
X-238100Y1801100D01*
X-234900Y1822400D01*
X-241200Y1843700D01*
X-253900Y1860300D01*
X-276200Y1872200D01*
X-301600Y1874500D01*
X-327000Y1869800D01*
X-342900Y1857900D01*
X-355500Y1841400D01*
X-358700Y1824800D01*
X-355500Y1808200D01*
X-342900Y1786900D01*
X-425400Y1794000D01*
Y1857900D01*
G01X-330200Y2036300D02*
Y3000000D01*
G01X-267700Y2600000D02*
X-330200Y3000000D01*
X-392700Y2600000D01*
X-267700D01*
G01X-234900Y3181300D02*
X-425400D01*
X-387300Y3152900D01*
G01X-234900D02*
Y3209700D01*
G01X-263500Y3319700D02*
X-247600Y3333900D01*
X-238100Y3350500D01*
X-234900Y3371800D01*
X-241200Y3393100D01*
X-253900Y3409700D01*
X-276200Y3421600D01*
X-301600Y3423900D01*
X-327000Y3419200D01*
X-342900Y3407300D01*
X-355500Y3390800D01*
X-358700Y3374200D01*
X-355500Y3357600D01*
X-342900Y3336300D01*
X-425400Y3343400D01*
Y3407300D01*
G01X-330200Y2967500D02*
Y3000000D01*
G01X-392700Y3400000D02*
X-330200Y3000000D01*
X-267700Y3400000D01*
X-392700D01*
G01X-330200Y3585700D02*
Y4500000D01*
G01X-267700Y4100000D02*
X-330200Y4500000D01*
X-392700Y4100000D01*
X-267700D01*
G01X-330200Y5202700D02*
Y4500000D01*
G01X-392700Y4900000D02*
X-330200Y4500000D01*
X-267700Y4900000D01*
X-392700D01*
G01X-393700Y5371500D02*
X-412700Y5385700D01*
X-422200Y5402300D01*
X-425400Y5421200D01*
X-419100Y5444900D01*
X-403200Y5461500D01*
X-384100Y5466300D01*
X-365100Y5463900D01*
X-349200Y5454400D01*
X-317400Y5407000D01*
X-295200Y5385700D01*
X-263500Y5371500D01*
X-234900Y5366700D01*
Y5466300D01*
G01X-425400Y5607000D02*
X-419100Y5588000D01*
X-403200Y5573800D01*
X-384100Y5564300D01*
X-358700Y5557200D01*
X-330100Y5554900D01*
X-301600Y5557200D01*
X-276200Y5564300D01*
X-257100Y5573800D01*
X-241200Y5588000D01*
X-234900Y5607000D01*
X-241200Y5626000D01*
X-257100Y5640200D01*
X-276200Y5649700D01*
X-301600Y5656800D01*
X-330100Y5659100D01*
X-358700Y5656800D01*
X-384100Y5649700D01*
X-403200Y5640200D01*
X-419100Y5626000D01*
X-425400Y5607000D01*
G01X-216900Y6100000D02*
X-279400Y6500000D01*
X-341900Y6100000D01*
X-216900D01*
G01X-330200Y5820900D02*
Y6500000D01*
G01X-267700Y6100000D02*
X-330200Y6500000D01*
X-392700Y6100000D01*
X-267700D01*
G01X142000Y7153200D02*
X165600Y7126800D01*
X193200Y7110900D01*
X228600Y7105600D01*
X264000Y7116200D01*
X291600Y7137300D01*
X311300Y7174400D01*
X315200Y7216700D01*
X307300Y7259100D01*
X287600Y7285500D01*
X260100Y7306700D01*
X232500Y7312000D01*
X205000Y7306700D01*
X169600Y7285500D01*
X181400Y7423100D01*
X287600D01*
G01X0Y6752400D02*
Y7514400D01*
G01X-212700Y6704300D02*
X-196800Y6718500D01*
X-187300Y6735100D01*
X-184100Y6756400D01*
X-190400Y6777700D01*
X-203100Y6794300D01*
X-225400Y6806200D01*
X-250800Y6808500D01*
X-276200Y6803800D01*
X-292100Y6791900D01*
X-304700Y6775400D01*
X-307900Y6758800D01*
X-304700Y6742200D01*
X-292100Y6720900D01*
X-374600Y6728000D01*
Y6791900D01*
G01X-279400Y6542500D02*
Y6500000D01*
G01Y6970300D02*
Y7000000D01*
G01X-341900Y7400000D02*
X-279400Y7000000D01*
X-216900Y7400000D01*
X-341900D01*
G01X0Y7250000D02*
Y9216200D01*
G01X-127600Y7264400D02*
X0D01*
G01X-400000Y7201900D02*
X0Y7264400D01*
X-400000Y7326900D01*
Y7201900D01*
G01X4205700Y8966200D02*
X0D01*
G01X400000Y9028700D02*
X0Y8966200D01*
X400000Y8903700D01*
Y9028700D01*
G01X500000Y6750000D02*
Y7514400D01*
G01Y6750000D02*
Y7565200D01*
G01X584800Y7264400D02*
X500000D01*
G01X900000Y7326900D02*
X500000Y7264400D01*
X900000Y7201900D01*
Y7326900D01*
G01X4363200Y7315200D02*
X500000D01*
G01X900000Y7377700D02*
X500000Y7315200D01*
X900000Y7252700D01*
Y7377700D01*
G01X4652400Y7193400D02*
X4679900Y7167000D01*
X4711400Y7156400D01*
X4742900Y7167000D01*
X4770500Y7198700D01*
X4790200Y7246400D01*
X4798000Y7294000D01*
Y7352200D01*
X4790200Y7399800D01*
X4770500Y7442100D01*
X4746900Y7463300D01*
X4719300Y7473900D01*
X4687800Y7463300D01*
X4664200Y7442100D01*
X4648400Y7410400D01*
X4640600Y7368100D01*
X4648400Y7331000D01*
X4668100Y7294000D01*
X4691700Y7272800D01*
X4719300Y7267500D01*
X4750800Y7278100D01*
X4774400Y7304600D01*
X4798000Y7352200D01*
G01X5034200Y7473900D02*
X5002700Y7463300D01*
X4979100Y7436900D01*
X4963300Y7405100D01*
X4951500Y7362800D01*
X4947600Y7315100D01*
X4951500Y7267500D01*
X4963300Y7225200D01*
X4979100Y7193400D01*
X5002700Y7167000D01*
X5034200Y7156400D01*
X5065700Y7167000D01*
X5089300Y7193400D01*
X5105100Y7225200D01*
X5116900Y7267500D01*
X5120800Y7315100D01*
X5116900Y7362800D01*
X5105100Y7405100D01*
X5089300Y7436900D01*
X5065700Y7463300D01*
X5034200Y7473900D01*
G01X4561900Y8807400D02*
Y9124900D01*
X4514700Y9061400D01*
G01Y8807400D02*
X4609100D01*
G01X4876800Y9124900D02*
X4845300Y9114300D01*
X4821700Y9087900D01*
X4805900Y9056100D01*
X4794100Y9013800D01*
X4790200Y8966100D01*
X4794100Y8918500D01*
X4805900Y8876200D01*
X4821700Y8844400D01*
X4845300Y8818000D01*
X4876800Y8807400D01*
X4908300Y8818000D01*
X4931900Y8844400D01*
X4947700Y8876200D01*
X4959500Y8918500D01*
X4963400Y8966100D01*
X4959500Y9013800D01*
X4947700Y9056100D01*
X4931900Y9087900D01*
X4908300Y9114300D01*
X4876800Y9124900D01*
G01X5191700D02*
X5160200Y9114300D01*
X5136600Y9087900D01*
X5120800Y9056100D01*
X5109000Y9013800D01*
X5105100Y8966100D01*
X5109000Y8918500D01*
X5120800Y8876200D01*
X5136600Y8844400D01*
X5160200Y8818000D01*
X5191700Y8807400D01*
X5223200Y8818000D01*
X5246800Y8844400D01*
X5262600Y8876200D01*
X5274400Y8918500D01*
X5278300Y8966100D01*
X5274400Y9013800D01*
X5262600Y9056100D01*
X5246800Y9087900D01*
X5223200Y9114300D01*
X5191700Y9124900D01*
G01X5390400Y7315200D02*
X9500000D01*
G01X5547900Y8966200D02*
X10000000D01*
G01X9100000Y7252700D02*
X9500000Y7315200D01*
X9100000Y7377700D01*
Y7252700D01*
G01X9372000Y7315200D02*
X9500000D01*
G01X9100000Y7252700D02*
X9500000Y7315200D01*
X9100000Y7377700D01*
Y7252700D01*
G01X10379100Y252700D02*
X10395000Y266900D01*
X10404500Y283500D01*
X10407700Y304800D01*
X10401400Y326100D01*
X10388700Y342700D01*
X10366400Y354600D01*
X10341000Y356900D01*
X10315600Y352200D01*
X10299700Y340300D01*
X10287100Y323800D01*
X10283900Y307200D01*
X10287100Y290600D01*
X10299700Y269300D01*
X10217200Y276400D01*
Y340300D01*
G01X9750000Y500000D02*
X10587800D01*
G01X9750000D02*
X10562400D01*
G01X9750000Y3000000D02*
X10587800D01*
G01X9500000Y6750000D02*
Y7565200D01*
G01X9641600Y7204000D02*
X9665200Y7177600D01*
X9692800Y7161700D01*
X9728200Y7156400D01*
X9763600Y7167000D01*
X9791200Y7188100D01*
X9810900Y7225200D01*
X9814800Y7267500D01*
X9806900Y7309900D01*
X9787200Y7336300D01*
X9759700Y7357500D01*
X9732100Y7362800D01*
X9704600Y7357500D01*
X9669200Y7336300D01*
X9681000Y7473900D01*
X9787200D01*
G01X9500000Y6750000D02*
Y7565200D01*
G01X10000000Y7250000D02*
Y9216200D01*
G01Y7250000D02*
Y7565200D01*
G01X10084400Y7315200D02*
X10000000D01*
G01X10400000Y7377700D02*
X10000000Y7315200D01*
X10400000Y7252700D01*
Y7377700D01*
G01X9600000Y8903700D02*
X10000000Y8966200D01*
X9600000Y9028700D01*
Y8903700D01*
G01X10250000Y0D02*
X10562400D01*
G01X10312400Y90900D02*
Y0D01*
G01X10374900Y-400000D02*
X10312400Y0D01*
X10249900Y-400000D01*
X10374900D01*
G01X10337800Y1443500D02*
Y500000D01*
G01X10275300Y900000D02*
X10337800Y500000D01*
X10400300Y900000D01*
X10275300D01*
G01X10312400Y518700D02*
Y500000D01*
G01X10249900Y900000D02*
X10312400Y500000D01*
X10374900Y900000D01*
X10249900D01*
G01X10274300Y1612300D02*
X10255300Y1626500D01*
X10245800Y1643100D01*
X10242600Y1662000D01*
X10248900Y1685700D01*
X10264800Y1702300D01*
X10283900Y1707100D01*
X10302900Y1704700D01*
X10318800Y1695200D01*
X10350600Y1647800D01*
X10372800Y1626500D01*
X10404500Y1612300D01*
X10433100Y1607500D01*
Y1707100D01*
G01X10404500Y1795700D02*
X10420400Y1809900D01*
X10429900Y1826500D01*
X10433100Y1847800D01*
X10426800Y1869100D01*
X10414100Y1885700D01*
X10391800Y1897600D01*
X10366400Y1899900D01*
X10341000Y1895200D01*
X10325100Y1883300D01*
X10312500Y1866800D01*
X10309300Y1850200D01*
X10312500Y1833600D01*
X10325100Y1812300D01*
X10242600Y1819400D01*
Y1883300D01*
G01X10337800Y2061700D02*
Y3000000D01*
G01X10400300Y2600000D02*
X10337800Y3000000D01*
X10275300Y2600000D01*
X10400300D01*
M02*
