G04 ================== begin FILE IDENTIFICATION RECORD ==================*
G04 Layout Name:  C:/WORK/allegro/EX2.brd*
G04 Film Name:    DrillDraw*
G04 File Format:  Gerber RS274X*
G04 File Origin:  Cadence Allegro 17.2-P019*
G04 Origin Date:  Wed Jul 31 12:13:08 2019*
G04 *
G04 Layer:  BOARD GEOMETRY/OUTLINE*
G04 Layer:  BOARD GEOMETRY/DIMENSION*
G04 Layer:  BOARD GEOMETRY/DESIGN_OUTLINE*
G04 *
G04 Offset:    (0.000 0.000)*
G04 Mirror:    No*
G04 Mode:      Positive*
G04 Rotation:  0*
G04 FullContactRelief:  No*
G04 UndefLineWidth:     0.200*
G04 ================== end FILE IDENTIFICATION RECORD ====================*
%FSLAX25Y25*MOMM*%
%IR0*IPPOS*OFA0.00000B0.00000*MIA0B0*SFA1.00000B1.00000*%
%ADD10C,.2*%
G75*
%LPD*%
G75*
G54D10*
G01X-250000Y0D02*
X-1393000D01*
G01X-1205500Y400000D02*
X-1143000Y0D01*
X-1080500Y400000D01*
X-1205500D01*
G01X-1308400Y3524200D02*
X-1300500Y3593000D01*
X-1288700Y3651200D01*
X-1272900Y3704100D01*
X-1253300Y3762300D01*
X-1221800Y3841700D01*
X-1379200D01*
G01X-985600D02*
X-1017100Y3831100D01*
X-1040700Y3804700D01*
X-1056500Y3772900D01*
X-1068300Y3730600D01*
X-1072200Y3682900D01*
X-1068300Y3635300D01*
X-1056500Y3593000D01*
X-1040700Y3561200D01*
X-1017100Y3534800D01*
X-985600Y3524200D01*
X-954100Y3534800D01*
X-930500Y3561200D01*
X-914700Y3593000D01*
X-902900Y3635300D01*
X-899000Y3682900D01*
X-902900Y3730600D01*
X-914700Y3772900D01*
X-930500Y3804700D01*
X-954100Y3831100D01*
X-985600Y3841700D01*
G01X-250000Y7000000D02*
X-1393000D01*
G01X-1080500Y6600000D02*
X-1143000Y7000000D01*
X-1205500Y6600000D01*
X-1080500D01*
G01X-1143000Y3286200D02*
Y0D01*
G01Y4079800D02*
Y7000000D01*
G01X0Y0D02*
Y7000000D01*
X10000000D01*
Y0D01*
X0D01*
G01Y7250000D02*
Y8378000D01*
G01X4154900Y8128000D02*
X0D01*
G01X400000Y8190500D02*
X0Y8128000D01*
X400000Y8065500D01*
Y8190500D01*
G01X4511100Y7969200D02*
Y8286700D01*
X4463900Y8223200D01*
G01Y7969200D02*
X4558300D01*
G01X4826000Y8286700D02*
X4794500Y8276100D01*
X4770900Y8249700D01*
X4755100Y8217900D01*
X4743300Y8175600D01*
X4739400Y8127900D01*
X4743300Y8080300D01*
X4755100Y8038000D01*
X4770900Y8006200D01*
X4794500Y7979800D01*
X4826000Y7969200D01*
X4857500Y7979800D01*
X4881100Y8006200D01*
X4896900Y8038000D01*
X4908700Y8080300D01*
X4912600Y8127900D01*
X4908700Y8175600D01*
X4896900Y8217900D01*
X4881100Y8249700D01*
X4857500Y8276100D01*
X4826000Y8286700D01*
G01X5140900D02*
X5109400Y8276100D01*
X5085800Y8249700D01*
X5070000Y8217900D01*
X5058200Y8175600D01*
X5054300Y8127900D01*
X5058200Y8080300D01*
X5070000Y8038000D01*
X5085800Y8006200D01*
X5109400Y7979800D01*
X5140900Y7969200D01*
X5172400Y7979800D01*
X5196000Y8006200D01*
X5211800Y8038000D01*
X5223600Y8080300D01*
X5227500Y8127900D01*
X5223600Y8175600D01*
X5211800Y8217900D01*
X5196000Y8249700D01*
X5172400Y8276100D01*
X5140900Y8286700D01*
G01X5497100Y8128000D02*
X10000000D01*
G01Y7250000D02*
Y8378000D01*
G01X9600000Y8065500D02*
X10000000Y8128000D01*
X9600000Y8190500D01*
Y8065500D01*
M02*
