G04 ================== begin FILE IDENTIFICATION RECORD ==================*
G04 Layout Name:  C:/WORK/allegro/EX2.brd*
G04 Film Name:    SilkT*
G04 File Format:  Gerber RS274X*
G04 File Origin:  Cadence Allegro 17.2-P019*
G04 Origin Date:  Wed Jul 31 12:13:07 2019*
G04 *
G04 Layer:  REF DES/SILKSCREEN_TOP*
G04 Layer:  PACKAGE GEOMETRY/SILKSCREEN_TOP*
G04 Layer:  BOARD GEOMETRY/SILKSCREEN_TOP*
G04 *
G04 Offset:    (0.000 0.000)*
G04 Mirror:    No*
G04 Mode:      Positive*
G04 Rotation:  0*
G04 FullContactRelief:  No*
G04 UndefLineWidth:     0.200*
G04 ================== end FILE IDENTIFICATION RECORD ====================*
%FSLAX25Y25*MOMM*%
%IR0*IPPOS*OFA0.00000B0.00000*MIA0B0*SFA1.00000B1.00000*%
%ADD10C,.5*%
%ADD11C,.2*%
G75*
%LPD*%
G75*
G54D10*
G01X3468700Y508000D02*
X3335300D01*
Y908000D01*
X3468700D01*
G01X3415300Y714700D02*
X3335300D01*
G01X3550500Y908000D02*
Y508000D01*
X3683900D01*
G01X3899100D02*
X3765700D01*
Y908000D01*
X3899100D01*
G01X3845700Y714700D02*
X3765700D01*
G01X4120900Y874700D02*
X4100900Y894700D01*
X4077600Y908000D01*
X4050900D01*
X4020900Y888000D01*
X3997600Y854700D01*
X3980900Y814700D01*
X3967600Y748000D01*
X3964300Y688000D01*
X3970900Y628000D01*
X3980900Y588000D01*
X4000900Y548000D01*
X4024300Y521300D01*
X4047600Y508000D01*
X4070900D01*
X4094300Y521300D01*
X4114300Y541300D01*
X4130900Y568000D01*
G01X4262800Y908000D02*
Y508000D01*
G01X4186100Y908000D02*
X4339500D01*
G01X4411300Y508000D02*
Y908000D01*
X4494700D01*
X4521300Y888000D01*
X4538000Y861300D01*
X4544700Y808000D01*
X4538000Y754700D01*
X4518000Y721300D01*
X4494700Y701300D01*
X4411300D01*
G01X4494700D02*
X4544700Y508000D01*
G01X4693200D02*
X4666500Y514700D01*
X4643200Y541300D01*
X4623200Y581300D01*
X4609900Y628000D01*
X4603200Y681300D01*
Y734700D01*
X4609900Y788000D01*
X4623200Y834700D01*
X4643200Y874700D01*
X4666500Y901300D01*
X4693200Y908000D01*
X4719900Y901300D01*
X4743200Y874700D01*
X4763200Y834700D01*
X4776500Y788000D01*
X4783200Y734700D01*
Y681300D01*
X4776500Y628000D01*
X4763200Y581300D01*
X4743200Y541300D01*
X4719900Y514700D01*
X4693200Y508000D01*
G01X4831700D02*
Y908000D01*
X4985100Y508000D01*
Y908000D01*
G01X5083600D02*
X5163600D01*
G01X5123600D02*
Y508000D01*
G01X5083600D02*
X5163600D01*
G01X5412100Y874700D02*
X5392100Y894700D01*
X5368800Y908000D01*
X5342100D01*
X5312100Y888000D01*
X5288800Y854700D01*
X5272100Y814700D01*
X5258800Y748000D01*
X5255500Y688000D01*
X5262100Y628000D01*
X5272100Y588000D01*
X5292100Y548000D01*
X5315500Y521300D01*
X5338800Y508000D01*
X5362100D01*
X5385500Y521300D01*
X5405500Y541300D01*
X5422100Y568000D01*
G01X5842500Y874700D02*
X5822500Y894700D01*
X5799200Y908000D01*
X5772500D01*
X5742500Y888000D01*
X5719200Y854700D01*
X5702500Y814700D01*
X5689200Y748000D01*
X5685900Y688000D01*
X5692500Y628000D01*
X5702500Y588000D01*
X5722500Y548000D01*
X5745900Y521300D01*
X5769200Y508000D01*
X5792500D01*
X5815900Y521300D01*
X5835900Y541300D01*
X5852500Y568000D01*
G01X5901100Y508000D02*
X5984400Y908000D01*
X6067700Y508000D01*
G01X6037700Y648000D02*
X5931100D01*
G01X6126300Y508000D02*
Y908000D01*
X6192900D01*
X6219600Y888000D01*
X6239600Y861300D01*
X6256300Y821300D01*
X6269600Y774700D01*
X6272900Y708000D01*
X6269600Y641300D01*
X6256300Y594700D01*
X6239600Y554700D01*
X6219600Y528000D01*
X6192900Y508000D01*
X6126300D01*
G54D11*
G01X373000Y3627000D02*
X627000D01*
Y2865000D01*
X373000D01*
Y3627000D01*
G01X675300Y3647700D02*
X662600Y3639700D01*
X654100Y3630000D01*
X649900Y3618800D01*
X654100Y3605900D01*
X662600Y3596200D01*
X675300Y3586600D01*
X692200Y3583400D01*
X776900D01*
G01X649900Y3486100D02*
X776900D01*
X751500Y3505400D01*
G01X649900D02*
Y3466800D01*
G01X919100Y3810000D02*
Y3937000D01*
X959300D01*
X972200Y3930600D01*
X980200Y3922200D01*
X983400Y3905200D01*
X980200Y3888300D01*
X970600Y3877700D01*
X959300Y3871400D01*
X919100D01*
G01X959300D02*
X983400Y3810000D01*
G01X1045400Y3829000D02*
X1055000Y3818500D01*
X1066300Y3812100D01*
X1080700Y3810000D01*
X1095200Y3814200D01*
X1106500Y3822700D01*
X1114500Y3837500D01*
X1116100Y3854400D01*
X1112900Y3871400D01*
X1104900Y3882000D01*
X1093600Y3890400D01*
X1082400Y3892500D01*
X1071100Y3890400D01*
X1056600Y3882000D01*
X1061400Y3937000D01*
X1104900D01*
G01X1143000Y5054600D02*
Y4343400D01*
X889000D01*
Y5054600D01*
X1143000D01*
G01X889000Y5461000D02*
Y5969000D01*
X1143000D01*
Y5461000D01*
X889000D01*
G01X986600Y6148900D02*
X977000Y6155300D01*
X965700Y6159500D01*
X952900D01*
X938400Y6153100D01*
X927100Y6142600D01*
X919100Y6129900D01*
X912600Y6108700D01*
X911000Y6089600D01*
X914300Y6070600D01*
X919100Y6057900D01*
X928700Y6045200D01*
X940000Y6036700D01*
X951200Y6032500D01*
X962500D01*
X973800Y6036700D01*
X983400Y6043100D01*
X991500Y6051500D01*
G01X1080700Y6032500D02*
Y6159500D01*
X1061400Y6134100D01*
G01Y6032500D02*
X1100000D01*
G01X1300100Y3810000D02*
Y3937000D01*
X1340300D01*
X1353200Y3930600D01*
X1361200Y3922200D01*
X1364400Y3905200D01*
X1361200Y3888300D01*
X1351600Y3877700D01*
X1340300Y3871400D01*
X1300100D01*
G01X1340300D02*
X1364400Y3810000D01*
G01X1431200Y3862900D02*
X1442400Y3877700D01*
X1452100Y3886200D01*
X1465000Y3890400D01*
X1476200Y3886200D01*
X1484300Y3877700D01*
X1490700Y3865000D01*
X1492300Y3850200D01*
X1490700Y3837500D01*
X1484300Y3824800D01*
X1474600Y3814200D01*
X1463400Y3810000D01*
X1450500Y3814200D01*
X1439200Y3826900D01*
X1432800Y3846000D01*
X1431200Y3867100D01*
X1434400Y3894700D01*
X1439200Y3909500D01*
X1447300Y3924300D01*
X1458500Y3934900D01*
X1469800Y3937000D01*
X1481100Y3932800D01*
X1489100Y3922200D01*
G01X1681100Y3810000D02*
Y3937000D01*
X1721300D01*
X1734200Y3930600D01*
X1742200Y3922200D01*
X1745400Y3905200D01*
X1742200Y3888300D01*
X1732600Y3877700D01*
X1721300Y3871400D01*
X1681100D01*
G01X1721300D02*
X1745400Y3810000D01*
G01X1839500D02*
X1842700Y3837500D01*
X1847600Y3860800D01*
X1854000Y3882000D01*
X1862100Y3905200D01*
X1874900Y3937000D01*
X1810600D01*
G01X1524000Y5054600D02*
Y4343400D01*
X1270000D01*
Y5054600D01*
X1524000D01*
G01X1905000D02*
Y4343400D01*
X1651000D01*
Y5054600D01*
X1905000D01*
G01X1651000Y5461000D02*
Y5969000D01*
X1905000D01*
Y5461000D01*
X1651000D01*
G01X1524000Y5969000D02*
Y5461000D01*
X1270000D01*
Y5969000D01*
X1524000D01*
G01X1748600Y6148900D02*
X1739000Y6155300D01*
X1727700Y6159500D01*
X1714900D01*
X1700400Y6153100D01*
X1689100Y6142600D01*
X1681100Y6129900D01*
X1674600Y6108700D01*
X1673000Y6089600D01*
X1676300Y6070600D01*
X1681100Y6057900D01*
X1690700Y6045200D01*
X1702000Y6036700D01*
X1713200Y6032500D01*
X1724500D01*
X1735800Y6036700D01*
X1745400Y6043100D01*
X1753500Y6051500D01*
G01X1807400Y6057900D02*
X1817000Y6043100D01*
X1829900Y6034600D01*
X1844400Y6032500D01*
X1857200Y6034600D01*
X1870100Y6045200D01*
X1878100Y6057900D01*
X1879700Y6070600D01*
X1876500Y6085400D01*
X1865300Y6096000D01*
X1854000Y6100200D01*
X1839500D01*
G01X1854000D02*
X1863700Y6106600D01*
X1871700Y6117200D01*
X1874900Y6129900D01*
X1871700Y6142600D01*
X1863700Y6153100D01*
X1849200Y6159500D01*
X1834700Y6157400D01*
X1820200Y6148900D01*
G01X1367600D02*
X1358000Y6155300D01*
X1346700Y6159500D01*
X1333900D01*
X1319400Y6153100D01*
X1308100Y6142600D01*
X1300100Y6129900D01*
X1293600Y6108700D01*
X1292000Y6089600D01*
X1295300Y6070600D01*
X1300100Y6057900D01*
X1309700Y6045200D01*
X1321000Y6036700D01*
X1332200Y6032500D01*
X1343500D01*
X1354800Y6036700D01*
X1364400Y6043100D01*
X1372500Y6051500D01*
G01X1431200Y6138300D02*
X1440800Y6151000D01*
X1452100Y6157400D01*
X1465000Y6159500D01*
X1481100Y6155300D01*
X1492300Y6144700D01*
X1495500Y6132000D01*
X1493900Y6119300D01*
X1487500Y6108700D01*
X1455300Y6087500D01*
X1440800Y6072700D01*
X1431200Y6051500D01*
X1428000Y6032500D01*
X1495500D01*
G01X2570100Y3873500D02*
Y4000500D01*
X2610300D01*
X2623200Y3994100D01*
X2631200Y3985700D01*
X2634400Y3968700D01*
X2631200Y3951800D01*
X2621600Y3941200D01*
X2610300Y3934900D01*
X2570100D01*
G01X2610300D02*
X2634400Y3873500D01*
G01X2696400Y3898900D02*
X2706000Y3884100D01*
X2718900Y3875600D01*
X2733400Y3873500D01*
X2746200Y3875600D01*
X2759100Y3886200D01*
X2767100Y3898900D01*
X2768700Y3911600D01*
X2765500Y3926400D01*
X2754300Y3937000D01*
X2743000Y3941200D01*
X2728500D01*
G01X2743000D02*
X2752700Y3947600D01*
X2760700Y3958200D01*
X2763900Y3970900D01*
X2760700Y3983600D01*
X2752700Y3994100D01*
X2738200Y4000500D01*
X2723700Y3998400D01*
X2709200Y3989900D01*
G01X2189100Y3810000D02*
Y3937000D01*
X2229300D01*
X2242200Y3930600D01*
X2250200Y3922200D01*
X2253400Y3905200D01*
X2250200Y3888300D01*
X2240600Y3877700D01*
X2229300Y3871400D01*
X2189100D01*
G01X2229300D02*
X2253400Y3810000D01*
G01X2350700D02*
X2362000Y3812100D01*
X2374900Y3818500D01*
X2382900Y3829000D01*
X2386100Y3843900D01*
X2382900Y3858700D01*
X2373300Y3871400D01*
X2358800Y3877700D01*
X2342700D01*
X2333100Y3882000D01*
X2325000Y3892500D01*
X2321800Y3907400D01*
X2326600Y3922200D01*
X2337900Y3932800D01*
X2350700Y3937000D01*
X2363600Y3932800D01*
X2374900Y3922200D01*
X2379700Y3907400D01*
X2376500Y3892500D01*
X2368400Y3882000D01*
X2358800Y3877700D01*
X2342700D01*
X2328200Y3871400D01*
X2318600Y3858700D01*
X2315400Y3843900D01*
X2318600Y3829000D01*
X2326600Y3818500D01*
X2339500Y3812100D01*
X2350700Y3810000D01*
G01X2794000Y5054600D02*
Y4343400D01*
X2540000D01*
Y5054600D01*
X2794000D01*
G01X2413000D02*
Y4343400D01*
X2159000D01*
Y5054600D01*
X2413000D01*
G01X2476500Y5969000D02*
X3111500D01*
Y5461000D01*
X2476500D01*
Y5969000D01*
G01X2286000D02*
Y5461000D01*
X2032000D01*
Y5969000D01*
X2286000D01*
G01X2624200Y6159500D02*
X2664400Y6032500D01*
X2704700Y6159500D01*
G01X2761800Y6032500D02*
Y6159500D01*
X2802000D01*
X2814900Y6153100D01*
X2822900Y6144700D01*
X2826100Y6127700D01*
X2822900Y6110800D01*
X2813300Y6100200D01*
X2802000Y6093900D01*
X2761800D01*
G01X2802000D02*
X2826100Y6032500D01*
G01X2923400D02*
Y6159500D01*
X2904100Y6134100D01*
G01Y6032500D02*
X2942700D01*
G01X2129600Y6148900D02*
X2120000Y6155300D01*
X2108700Y6159500D01*
X2095900D01*
X2081400Y6153100D01*
X2070100Y6142600D01*
X2062100Y6129900D01*
X2055600Y6108700D01*
X2054000Y6089600D01*
X2057300Y6070600D01*
X2062100Y6057900D01*
X2071700Y6045200D01*
X2083000Y6036700D01*
X2094200Y6032500D01*
X2105500D01*
X2116800Y6036700D01*
X2126400Y6043100D01*
X2134500Y6051500D01*
G01X2243100Y6032500D02*
Y6159500D01*
X2183500Y6068500D01*
X2264000D01*
G01X2951100Y3810000D02*
Y3937000D01*
X2991300D01*
X3004200Y3930600D01*
X3012200Y3922200D01*
X3015400Y3905200D01*
X3012200Y3888300D01*
X3002600Y3877700D01*
X2991300Y3871400D01*
X2951100D01*
G01X2991300D02*
X3015400Y3810000D01*
G01X3082200Y3915800D02*
X3091800Y3928500D01*
X3103100Y3934900D01*
X3116000Y3937000D01*
X3132100Y3932800D01*
X3143300Y3922200D01*
X3146500Y3909500D01*
X3144900Y3896800D01*
X3138500Y3886200D01*
X3106300Y3865000D01*
X3091800Y3850200D01*
X3082200Y3829000D01*
X3079000Y3810000D01*
X3146500D01*
G01X2921000Y4343400D02*
Y5054600D01*
X3175000D01*
Y4343400D01*
X2921000D01*
G01X3131600Y6339400D02*
X3122000Y6345800D01*
X3110700Y6350000D01*
X3097900D01*
X3083400Y6343600D01*
X3072100Y6333100D01*
X3064100Y6320400D01*
X3057600Y6299200D01*
X3056000Y6280100D01*
X3059300Y6261100D01*
X3064100Y6248400D01*
X3073700Y6235700D01*
X3085000Y6227200D01*
X3096200Y6223000D01*
X3107500D01*
X3118800Y6227200D01*
X3128400Y6233600D01*
X3136500Y6242000D01*
G01X3192000Y6223000D02*
Y6350000D01*
G01X3259500D02*
Y6223000D01*
G01Y6286500D02*
X3192000D01*
G01X3355200Y6223000D02*
X3342400Y6225100D01*
X3331100Y6233600D01*
X3321500Y6246300D01*
X3315000Y6261100D01*
X3311800Y6278000D01*
Y6295000D01*
X3315000Y6311900D01*
X3321500Y6326700D01*
X3331100Y6339400D01*
X3342400Y6347900D01*
X3355200Y6350000D01*
X3368100Y6347900D01*
X3379400Y6339400D01*
X3389000Y6326700D01*
X3395500Y6311900D01*
X3398700Y6295000D01*
Y6278000D01*
X3395500Y6261100D01*
X3389000Y6246300D01*
X3379400Y6233600D01*
X3368100Y6225100D01*
X3355200Y6223000D01*
G01X3452600D02*
Y6350000D01*
X3491200D01*
X3504100Y6343600D01*
X3513700Y6328800D01*
X3516900Y6311900D01*
X3513700Y6295000D01*
X3505700Y6282300D01*
X3491200Y6275900D01*
X3452600D01*
G01X3582100Y6223000D02*
Y6350000D01*
X3620700D01*
X3633600Y6343600D01*
X3643200Y6328800D01*
X3646400Y6311900D01*
X3643200Y6295000D01*
X3635200Y6282300D01*
X3620700Y6275900D01*
X3582100D01*
G01X3724400Y6350000D02*
X3763000D01*
G01X3743700D02*
Y6223000D01*
G01X3724400D02*
X3763000D01*
G01X3836300D02*
Y6350000D01*
X3910200Y6223000D01*
Y6350000D01*
G01X4012400Y6286500D02*
X4044600D01*
Y6248400D01*
X4034900Y6235700D01*
X4023700Y6227200D01*
X4007600Y6223000D01*
X3991500Y6227200D01*
X3980200Y6235700D01*
X3970600Y6248400D01*
X3964100Y6263200D01*
X3960900Y6280100D01*
Y6295000D01*
X3964100Y6307700D01*
X3970600Y6322500D01*
X3980200Y6335200D01*
X3989900Y6343600D01*
X4002700Y6350000D01*
X4014000D01*
X4026900Y6345800D01*
X4036500Y6337300D01*
G01X4213500Y6350000D02*
X4236000Y6223000D01*
X4261700Y6350000D01*
X4287500Y6223000D01*
X4310000Y6350000D01*
G01X4351000Y6223000D02*
X4391200Y6350000D01*
X4431500Y6223000D01*
G01X4417000Y6267400D02*
X4365500D01*
G01X4480500Y6350000D02*
X4520700Y6223000D01*
X4561000Y6350000D01*
G01X4682400Y6223000D02*
X4618100D01*
Y6350000D01*
X4682400D01*
G01X4656700Y6288600D02*
X4618100D01*
G01X4909200Y6223000D02*
X4896400Y6225100D01*
X4885100Y6233600D01*
X4875500Y6246300D01*
X4869000Y6261100D01*
X4865800Y6278000D01*
Y6295000D01*
X4869000Y6311900D01*
X4875500Y6326700D01*
X4885100Y6339400D01*
X4896400Y6347900D01*
X4909200Y6350000D01*
X4922100Y6347900D01*
X4933400Y6339400D01*
X4943000Y6326700D01*
X4949500Y6311900D01*
X4952700Y6295000D01*
Y6278000D01*
X4949500Y6261100D01*
X4943000Y6246300D01*
X4933400Y6233600D01*
X4922100Y6225100D01*
X4909200Y6223000D01*
G01X5005000Y6239900D02*
X5017800Y6229300D01*
X5032300Y6223000D01*
X5045200D01*
X5058100Y6229300D01*
X5067700Y6239900D01*
X5072500Y6254800D01*
X5069300Y6269600D01*
X5061300Y6282300D01*
X5046800Y6290700D01*
X5027500Y6295000D01*
X5016200Y6303400D01*
X5011400Y6318200D01*
X5014600Y6333100D01*
X5022700Y6343600D01*
X5033900Y6350000D01*
X5045200D01*
X5056400Y6345800D01*
X5066100Y6335200D01*
G01X5203600Y6339400D02*
X5194000Y6345800D01*
X5182700Y6350000D01*
X5169900D01*
X5155400Y6343600D01*
X5144100Y6333100D01*
X5136100Y6320400D01*
X5129600Y6299200D01*
X5128000Y6280100D01*
X5131300Y6261100D01*
X5136100Y6248400D01*
X5145700Y6235700D01*
X5157000Y6227200D01*
X5168200Y6223000D01*
X5179500D01*
X5190800Y6227200D01*
X5200400Y6233600D01*
X5208500Y6242000D01*
G01X4635500Y2540000D02*
X4000500D01*
Y3048000D01*
X4635500D01*
Y2540000D01*
G01X3513200Y2921000D02*
X3553400Y2794000D01*
X3593700Y2921000D01*
G01X3650800Y2794000D02*
Y2921000D01*
X3691000D01*
X3703900Y2914600D01*
X3711900Y2906200D01*
X3715100Y2889200D01*
X3711900Y2872300D01*
X3702300Y2861700D01*
X3691000Y2855400D01*
X3650800D01*
G01X3691000D02*
X3715100Y2794000D01*
G01X3781900Y2899800D02*
X3791500Y2912500D01*
X3802800Y2918900D01*
X3815700Y2921000D01*
X3831800Y2916800D01*
X3843000Y2906200D01*
X3846200Y2893500D01*
X3844600Y2880800D01*
X3838200Y2870200D01*
X3806000Y2849000D01*
X3791500Y2834200D01*
X3781900Y2813000D01*
X3778700Y2794000D01*
X3846200D01*
G01X4572000Y3962400D02*
Y3810000D01*
X4508500Y3746500D01*
Y3619500D01*
X4572000Y3556000D01*
Y3403600D01*
X3556000D01*
Y3962400D01*
X4572000D01*
G01X3776600Y4826000D02*
Y4953000D01*
X3816800D01*
X3829700Y4946600D01*
X3837700Y4938200D01*
X3840900Y4921200D01*
X3837700Y4904300D01*
X3828100Y4893700D01*
X3816800Y4887400D01*
X3776600D01*
G01X3816800D02*
X3840900Y4826000D01*
G01X3910900Y4840800D02*
X3922200Y4830200D01*
X3935000Y4826000D01*
X3947900Y4830200D01*
X3959200Y4842900D01*
X3967200Y4862000D01*
X3970400Y4881000D01*
Y4904300D01*
X3967200Y4923400D01*
X3959200Y4940300D01*
X3949500Y4948800D01*
X3938200Y4953000D01*
X3925400Y4948800D01*
X3915700Y4940300D01*
X3909300Y4927600D01*
X3906100Y4910700D01*
X3909300Y4895900D01*
X3917300Y4881000D01*
X3927000Y4872600D01*
X3938200Y4870400D01*
X3951100Y4874700D01*
X3960800Y4885300D01*
X3970400Y4904300D01*
G01X4292600Y4445000D02*
X3581400D01*
Y4699000D01*
X4292600D01*
Y4445000D01*
G01X5334000Y4000500D02*
Y3365500D01*
X4826000D01*
Y4000500D01*
X5334000D01*
G01X4598900Y4254500D02*
Y4163500D01*
X4605300Y4144400D01*
X4618200Y4131700D01*
X4634200Y4127500D01*
X4650300Y4131700D01*
X4663200Y4144400D01*
X4669600Y4163500D01*
Y4254500D01*
G01X4763700Y4127500D02*
Y4254500D01*
X4744400Y4229100D01*
G01Y4127500D02*
X4783000D01*
G01X5037200Y3238500D02*
X5077400Y3111500D01*
X5117700Y3238500D01*
G01X5174800Y3111500D02*
Y3238500D01*
X5215000D01*
X5227900Y3232100D01*
X5235900Y3223700D01*
X5239100Y3206700D01*
X5235900Y3189800D01*
X5226300Y3179200D01*
X5215000Y3172900D01*
X5174800D01*
G01X5215000D02*
X5239100Y3111500D01*
G01X5301100Y3136900D02*
X5310700Y3122100D01*
X5323600Y3113600D01*
X5338100Y3111500D01*
X5350900Y3113600D01*
X5363800Y3124200D01*
X5371800Y3136900D01*
X5373400Y3149600D01*
X5370200Y3164400D01*
X5359000Y3175000D01*
X5347700Y3179200D01*
X5333200D01*
G01X5347700D02*
X5357400Y3185600D01*
X5365400Y3196200D01*
X5368600Y3208900D01*
X5365400Y3221600D01*
X5357400Y3232100D01*
X5342900Y3238500D01*
X5328400Y3236400D01*
X5313900Y3227900D01*
G01X6324600Y2667000D02*
X5613400D01*
Y2921000D01*
X6324600D01*
Y2667000D01*
G01X6477000Y3962400D02*
Y3810000D01*
X6413500Y3746500D01*
Y3619500D01*
X6477000Y3556000D01*
Y3403600D01*
X5461000D01*
Y3962400D01*
X6477000D01*
G01X5237100Y4826000D02*
Y4953000D01*
X5277300D01*
X5290200Y4946600D01*
X5298200Y4938200D01*
X5301400Y4921200D01*
X5298200Y4904300D01*
X5288600Y4893700D01*
X5277300Y4887400D01*
X5237100D01*
G01X5277300D02*
X5301400Y4826000D01*
G01X5418100D02*
Y4953000D01*
X5358500Y4862000D01*
X5439000D01*
G01X4978400Y4699000D02*
X5689600D01*
Y4445000D01*
X4978400D01*
Y4699000D01*
G01X5807300Y2413000D02*
Y2540000D01*
X5847500D01*
X5860400Y2533600D01*
X5868400Y2525200D01*
X5871600Y2508200D01*
X5868400Y2491300D01*
X5858800Y2480700D01*
X5847500Y2474400D01*
X5807300D01*
G01X5847500D02*
X5871600Y2413000D01*
G01X5968900D02*
Y2540000D01*
X5949600Y2514600D01*
G01Y2413000D02*
X5988200D01*
G01X6098400Y2540000D02*
X6085600Y2535800D01*
X6075900Y2525200D01*
X6069500Y2512500D01*
X6064700Y2495500D01*
X6063100Y2476500D01*
X6064700Y2457400D01*
X6069500Y2440500D01*
X6075900Y2427800D01*
X6085600Y2417200D01*
X6098400Y2413000D01*
X6111300Y2417200D01*
X6121000Y2427800D01*
X6127400Y2440500D01*
X6132200Y2457400D01*
X6133800Y2476500D01*
X6132200Y2495500D01*
X6127400Y2512500D01*
X6121000Y2525200D01*
X6111300Y2535800D01*
X6098400Y2540000D01*
G01X6440400Y3175000D02*
Y3084000D01*
X6446800Y3064900D01*
X6459700Y3052200D01*
X6475700Y3048000D01*
X6491800Y3052200D01*
X6504700Y3064900D01*
X6511100Y3084000D01*
Y3175000D01*
G01X6574700Y3153800D02*
X6584300Y3166500D01*
X6595600Y3172900D01*
X6608500Y3175000D01*
X6624600Y3170800D01*
X6635800Y3160200D01*
X6639000Y3147500D01*
X6637400Y3134800D01*
X6631000Y3124200D01*
X6598800Y3103000D01*
X6584300Y3088200D01*
X6574700Y3067000D01*
X6571500Y3048000D01*
X6639000D01*
G01X6375400Y4699000D02*
X7086600D01*
Y4445000D01*
X6375400D01*
Y4699000D01*
G01X7077300Y2349500D02*
Y2476500D01*
X7117500D01*
X7130400Y2470100D01*
X7138400Y2461700D01*
X7141600Y2444700D01*
X7138400Y2427800D01*
X7128800Y2417200D01*
X7117500Y2410900D01*
X7077300D01*
G01X7117500D02*
X7141600Y2349500D01*
G01X7238900D02*
Y2476500D01*
X7219600Y2451100D01*
G01Y2349500D02*
X7258200D01*
G01X7337900Y2455300D02*
X7347500Y2468000D01*
X7358800Y2474400D01*
X7371700Y2476500D01*
X7387800Y2472300D01*
X7399000Y2461700D01*
X7402200Y2449000D01*
X7400600Y2436300D01*
X7394200Y2425700D01*
X7362000Y2404500D01*
X7347500Y2389700D01*
X7337900Y2368500D01*
X7334700Y2349500D01*
X7402200D01*
G01X7594600Y2667000D02*
X6883400D01*
Y2921000D01*
X7594600D01*
Y2667000D01*
G01X7747000Y3962400D02*
Y3810000D01*
X7683500Y3746500D01*
Y3619500D01*
X7747000Y3556000D01*
Y3403600D01*
X6731000D01*
Y3962400D01*
X7747000D01*
G01X6634100Y4826000D02*
Y4953000D01*
X6674300D01*
X6687200Y4946600D01*
X6695200Y4938200D01*
X6698400Y4921200D01*
X6695200Y4904300D01*
X6685600Y4893700D01*
X6674300Y4887400D01*
X6634100D01*
G01X6674300D02*
X6698400Y4826000D01*
G01X6795700D02*
Y4953000D01*
X6776400Y4927600D01*
G01Y4826000D02*
X6815000D01*
G01X7519900Y3175000D02*
Y3084000D01*
X7526300Y3064900D01*
X7539200Y3052200D01*
X7555200Y3048000D01*
X7571300Y3052200D01*
X7584200Y3064900D01*
X7590600Y3084000D01*
Y3175000D01*
G01X7649400Y3073400D02*
X7659000Y3058600D01*
X7671900Y3050100D01*
X7686400Y3048000D01*
X7699200Y3050100D01*
X7712100Y3060700D01*
X7720100Y3073400D01*
X7721700Y3086100D01*
X7718500Y3100900D01*
X7707300Y3111500D01*
X7696000Y3115700D01*
X7681500D01*
G01X7696000D02*
X7705700Y3122100D01*
X7713700Y3132700D01*
X7716900Y3145400D01*
X7713700Y3158100D01*
X7705700Y3168600D01*
X7691200Y3175000D01*
X7676700Y3172900D01*
X7662200Y3164400D01*
G01X8347300Y2349500D02*
Y2476500D01*
X8387500D01*
X8400400Y2470100D01*
X8408400Y2461700D01*
X8411600Y2444700D01*
X8408400Y2427800D01*
X8398800Y2417200D01*
X8387500Y2410900D01*
X8347300D01*
G01X8387500D02*
X8411600Y2349500D01*
G01X8508900D02*
Y2476500D01*
X8489600Y2451100D01*
G01Y2349500D02*
X8528200D01*
G01X8638400D02*
Y2476500D01*
X8619100Y2451100D01*
G01Y2349500D02*
X8657700D01*
G01X8864600Y2667000D02*
X8153400D01*
Y2921000D01*
X8864600D01*
Y2667000D01*
G01X9017000Y3962400D02*
Y3810000D01*
X8953500Y3746500D01*
Y3619500D01*
X9017000Y3556000D01*
Y3403600D01*
X8001000D01*
Y3962400D01*
X9017000D01*
G01X8726400Y4381500D02*
Y4290500D01*
X8732800Y4271400D01*
X8745700Y4258700D01*
X8761700Y4254500D01*
X8777800Y4258700D01*
X8790700Y4271400D01*
X8797100Y4290500D01*
Y4381500D01*
G01X8910600Y4254500D02*
Y4381500D01*
X8851000Y4290500D01*
X8931500D01*
G01X8347300Y4762500D02*
Y4889500D01*
X8387500D01*
X8400400Y4883100D01*
X8408400Y4874700D01*
X8411600Y4857700D01*
X8408400Y4840800D01*
X8398800Y4830200D01*
X8387500Y4823900D01*
X8347300D01*
G01X8387500D02*
X8411600Y4762500D01*
G01X8508900D02*
Y4889500D01*
X8489600Y4864100D01*
G01Y4762500D02*
X8528200D01*
G01X8603100Y4787900D02*
X8612700Y4773100D01*
X8625600Y4764600D01*
X8640100Y4762500D01*
X8652900Y4764600D01*
X8665800Y4775200D01*
X8673800Y4787900D01*
X8675400Y4800600D01*
X8672200Y4815400D01*
X8661000Y4826000D01*
X8649700Y4830200D01*
X8635200D01*
G01X8649700D02*
X8659400Y4836600D01*
X8667400Y4847200D01*
X8670600Y4859900D01*
X8667400Y4872600D01*
X8659400Y4883100D01*
X8644900Y4889500D01*
X8630400Y4887400D01*
X8615900Y4878900D01*
G01X8153400Y4699000D02*
X8864600D01*
Y4445000D01*
X8153400D01*
Y4699000D01*
G01X9627000Y3373000D02*
X9373000D01*
Y3881000D01*
X9627000D01*
Y3373000D01*
G01X9174100Y4025900D02*
X9182100Y4013200D01*
X9191800Y4004700D01*
X9203000Y4000500D01*
X9215900Y4004700D01*
X9225600Y4013200D01*
X9235200Y4025900D01*
X9238400Y4042800D01*
Y4127500D01*
G01X9305200Y4106300D02*
X9314800Y4119000D01*
X9326100Y4125400D01*
X9339000Y4127500D01*
X9355100Y4123300D01*
X9366300Y4112700D01*
X9369500Y4100000D01*
X9367900Y4087300D01*
X9361500Y4076700D01*
X9329300Y4055500D01*
X9314800Y4040700D01*
X9305200Y4019500D01*
X9302000Y4000500D01*
X9369500D01*
M02*
