G04 ================== begin FILE IDENTIFICATION RECORD ==================*
G04 Layout Name:  C:/WORK/allegro/EX1.brd*
G04 Film Name:    SolderT*
G04 File Format:  Gerber RS274X*
G04 File Origin:  Cadence Allegro 17.2-P019*
G04 Origin Date:  Tue Jul 30 16:20:37 2019*
G04 *
G04 Layer:  VIA CLASS/SOLDERMASK_TOP*
G04 Layer:  PIN/SOLDERMASK_TOP*
G04 Layer:  PACKAGE GEOMETRY/SOLDERMASK_TOP*
G04 Layer:  BOARD GEOMETRY/SOLDERMASK_TOP*
G04 *
G04 Offset:    (0.000 0.000)*
G04 Mirror:    No*
G04 Mode:      Positive*
G04 Rotation:  0*
G04 FullContactRelief:  No*
G04 UndefLineWidth:     0.000*
G04 ================== end FILE IDENTIFICATION RECORD ====================*
%FSLAX25Y25*MOMM*%
%IR0*IPPOS*OFA0.00000B0.00000*MIA0B0*SFA1.00000B1.00000*%
%ADD13C,2.032*%
%ADD11C,1.905*%
%ADD10C,3.683*%
%ADD12R,1.905X1.905*%
%ADD15O,1.524X1.016*%
%ADD14R,1.524X1.016*%
%LPD*%
G75*
G54D10*
X500000Y500000D03*
Y6500000D03*
X9500000Y500000D03*
Y6500000D03*
Y9500000D03*
G54D11*
X500000Y2238000D03*
Y2492000D03*
Y2746000D03*
Y3000000D03*
Y3992000D03*
Y4246000D03*
Y4500000D03*
X1778000Y1905000D03*
Y2159000D03*
Y2413000D03*
Y3556000D03*
Y3810000D03*
Y4064000D03*
X2540000Y1905000D03*
Y2159000D03*
Y2413000D03*
Y2667000D03*
Y3556000D03*
Y3810000D03*
Y4064000D03*
Y4318000D03*
X4826000Y2032000D03*
X4572000Y2286000D03*
X4826000Y2540000D03*
X5334000Y3810000D03*
Y4064000D03*
Y4318000D03*
X6096000Y3810000D03*
Y4064000D03*
Y4318000D03*
Y4572000D03*
X7112000Y1651000D03*
Y1905000D03*
Y2159000D03*
X6604000Y3810000D03*
Y4064000D03*
Y4318000D03*
X7874000Y1651000D03*
Y1905000D03*
Y2159000D03*
Y2413000D03*
X7620000Y2794000D03*
X7366000Y3048000D03*
X7620000Y3302000D03*
X7366000Y3810000D03*
Y4064000D03*
Y4318000D03*
Y4572000D03*
X7874000Y4673600D03*
X9500000Y3254000D03*
Y3000000D03*
G54D12*
X1778000Y2667000D03*
Y4318000D03*
X5334000Y4572000D03*
X7112000Y2413000D03*
X6604000Y4572000D03*
X7874000Y3683000D03*
G54D13*
X2921000Y2032000D03*
Y2286000D03*
X3048000Y3556000D03*
Y4191000D03*
Y3937000D03*
Y4572000D03*
X4064000Y1778000D03*
X3556000D03*
X4064000Y2794000D03*
X3556000D03*
X4064000Y3556000D03*
Y4572000D03*
X4572000Y3556000D03*
Y4572000D03*
Y5207000D03*
X5461000Y1651000D03*
Y1397000D03*
X5588000Y5207000D03*
X5969000Y1397000D03*
X6477000Y2159000D03*
X5969000Y2413000D03*
X6477000Y3175000D03*
X8509000Y3683000D03*
Y4699000D03*
G54D14*
X5461000Y2413000D03*
G54D15*
Y2286000D03*
Y2159000D03*
M02*
