G04 ================== begin FILE IDENTIFICATION RECORD ==================*
G04 Layout Name:  C:/WORK/allegro/EX1.brd*
G04 Film Name:    TOP*
G04 File Format:  Gerber RS274X*
G04 File Origin:  Cadence Allegro 17.2-P019*
G04 Origin Date:  Tue Jul 30 16:20:37 2019*
G04 *
G04 Layer:  ETCH/TOP*
G04 Layer:  PIN/TOP*
G04 Layer:  VIA CLASS/TOP*
G04 *
G04 Offset:    (0.000 0.000)*
G04 Mirror:    No*
G04 Mode:      Positive*
G04 Rotation:  0*
G04 FullContactRelief:  No*
G04 UndefLineWidth:     0.000*
G04 ================== end FILE IDENTIFICATION RECORD ====================*
%FSLAX25Y25*MOMM*%
%IR0*IPPOS*OFA0.00000B0.00000*MIA0B0*SFA1.00000B1.00000*%
%ADD11C,1.524*%
%ADD13C,1.651*%
%ADD12R,1.524X1.524*%
%ADD15O,1.524X1.016*%
%ADD14R,1.524X1.016*%
%ADD10C,.635*%
%ADD16C,1.*%
%ADD17C,.5*%
G75*
%LPD*%
G75*
G54D10*
X500000Y500000D03*
Y6500000D03*
X9500000Y500000D03*
Y6500000D03*
Y9500000D03*
G54D11*
X500000Y2238000D03*
Y2492000D03*
Y2746000D03*
Y3000000D03*
Y3992000D03*
Y4246000D03*
Y4500000D03*
X1778000Y1905000D03*
Y2159000D03*
Y2413000D03*
Y3556000D03*
Y3810000D03*
Y4064000D03*
X2540000Y1905000D03*
Y2159000D03*
Y2413000D03*
Y2667000D03*
Y3556000D03*
Y3810000D03*
Y4064000D03*
Y4318000D03*
X4826000Y2032000D03*
X4572000Y2286000D03*
X4826000Y2540000D03*
X5334000Y3810000D03*
Y4064000D03*
Y4318000D03*
X6096000Y3810000D03*
Y4064000D03*
Y4318000D03*
Y4572000D03*
X7112000Y1651000D03*
Y1905000D03*
Y2159000D03*
X6604000Y3810000D03*
Y4064000D03*
Y4318000D03*
X7874000Y1651000D03*
Y1905000D03*
Y2159000D03*
Y2413000D03*
X7620000Y2794000D03*
X7366000Y3048000D03*
X7620000Y3302000D03*
X7366000Y3810000D03*
Y4064000D03*
Y4318000D03*
Y4572000D03*
X7874000Y4673600D03*
X9500000Y3254000D03*
Y3000000D03*
G54D12*
X1778000Y2667000D03*
Y4318000D03*
X5334000Y4572000D03*
X7112000Y2413000D03*
X6604000Y4572000D03*
X7874000Y3683000D03*
G54D13*
X2921000Y2032000D03*
Y2286000D03*
X3048000Y3556000D03*
Y4191000D03*
Y3937000D03*
Y4572000D03*
X4064000Y1778000D03*
X3556000D03*
X4064000Y2794000D03*
X3556000D03*
X4064000Y3556000D03*
Y4572000D03*
X4572000Y3556000D03*
Y4572000D03*
Y5207000D03*
X5461000Y1651000D03*
Y1397000D03*
X5588000Y5207000D03*
X5969000Y1397000D03*
X6477000Y2159000D03*
X5969000Y2413000D03*
X6477000Y3175000D03*
X8509000Y3683000D03*
Y4699000D03*
G54D14*
X5461000Y2413000D03*
G54D15*
Y2286000D03*
Y2159000D03*
G54D16*
G01X1778000Y2667000D02*
X1603000Y2492000D01*
X500000D01*
G01X2540000Y2667000D02*
Y2921000D01*
X2476500Y2984500D01*
X1016000D01*
X777500Y2746000D01*
X500000D01*
G01X5334000Y3810000D02*
X5207000Y3683000D01*
Y3402000D01*
X5107000Y3302000D01*
X2032000D01*
X1778000Y3556000D01*
G01X2540000Y2667000D02*
X2825000Y2952000D01*
X3906000D01*
X4064000Y2794000D01*
G01X2540000Y4064000D02*
X2921000D01*
X3048000Y4191000D01*
G01X7112000Y1905000D02*
X5969000D01*
X5715000Y1651000D01*
X5461000D01*
G01X6604000Y3810000D02*
Y3658400D01*
X6501600Y3556000D01*
X5434000D01*
X5334000Y3656000D01*
Y3810000D01*
G01X6096000Y4318000D02*
X6271400D01*
X6357300Y4403900D01*
Y4726000D01*
X6457300Y4826000D01*
X7012000D01*
X7112000Y4726000D01*
Y4418000D01*
X7212000Y4318000D01*
X7366000D01*
G54D17*
G01X1778000Y3810000D02*
X1523900D01*
X1333400Y3619500D01*
X304000D01*
X254000Y3669500D01*
Y4254000D01*
X500000Y4500000D01*
G01X2540000Y4318000D02*
Y4445000D01*
X2476500Y4508500D01*
X939000D01*
X889000Y4458500D01*
Y4318000D01*
X817000Y4246000D01*
X500000D01*
G01X3556000Y2794000D02*
X3238600D01*
X2857600Y2413000D01*
X2540000D01*
G01Y3810000D02*
X2921000D01*
X3048000Y3937000D01*
G01X2540000Y3556000D02*
X3048000D01*
G01X5461000Y2159000D02*
Y2032000D01*
X5207000Y1778000D01*
X4064000D01*
G01X5334000Y4064000D02*
X4241000D01*
X4191000Y4114000D01*
Y4522000D01*
X4141000Y4572000D01*
X4064000D01*
G01X4826000Y2540000D02*
X5308600D01*
X5435600Y2413000D01*
X5461000D01*
G01X5334000Y4318000D02*
X5130000D01*
X5080000Y4368000D01*
Y4508500D01*
X5016500Y4572000D01*
X4572000D01*
G01X5461000Y1397000D02*
X5969000D01*
G01X6477000Y2159000D02*
Y2349500D01*
X6413500Y2413000D01*
X5969000D01*
G01X6604000Y4318000D02*
X6463500D01*
X6350000Y4204500D01*
Y4114000D01*
X6300000Y4064000D01*
X6096000D01*
G01X6477000Y2159000D02*
X7112000D01*
G01X6477000Y3175000D02*
X7239000D01*
X7366000Y3048000D01*
G01X7620000Y3302000D02*
Y3111500D01*
X7556500Y3048000D01*
X7366000D01*
G01X7874000Y3683000D02*
X8509000D01*
G01D02*
Y3034500D01*
X8559000Y2984500D01*
X9357900D01*
X9373400Y3000000D01*
X9500000D01*
M02*
